<svg width="285" height="76" viewBox="0 0 165 44" fill="none" xmlns="http://www.w3.org/2000/svg">
<path d="M73.9164 42.7927H73.9133C73.8494 42.7927 73.7975 42.8439 73.7934 42.9069C73.7795 43.2757 73.7635 43.6006 73.7373 43.899C73.7373 43.9288 73.7451 43.9606 73.7676 43.9855C73.7869 44.0078 73.8161 44.0235 73.8475 44.0261L74.6005 44.0836H74.6101C74.6377 44.0836 74.6655 44.0735 74.6861 44.0534C74.7123 44.0338 74.7252 44.0053 74.728 43.9726C74.7527 43.6296 74.7721 43.2866 74.7851 42.9447C74.7865 42.8779 74.7357 42.8245 74.6719 42.8217L73.9167 42.7927H73.9164Z" fill="#FEFEFE"/>
<path d="M73.9067 41.0373H73.912L74.6676 41.0062C74.6975 41.0044 74.7278 40.99 74.7496 40.9677C74.7689 40.9441 74.7827 40.9142 74.7795 40.8827C74.7083 39.1903 74.4776 37.4751 74.0908 35.7859C74.0766 35.7222 74.011 35.6884 73.9499 35.6971L73.2142 35.8662C73.1827 35.8737 73.157 35.8922 73.1397 35.9182C73.1225 35.946 73.1177 35.9771 73.1246 36.0077C73.4983 37.6363 73.7217 39.2897 73.7898 40.9234C73.7923 40.9859 73.8444 41.0372 73.9069 41.0372L73.9067 41.0373Z" fill="#FEFEFE"/>
<path d="M73.8416 34.7849C73.6695 34.133 73.4702 33.4719 73.2501 32.8171C73.2277 32.7559 73.1695 32.7163 73.0995 32.7425L72.3851 32.9858C72.355 32.9965 72.3307 33.0187 72.3172 33.0458C72.3029 33.0741 72.3022 33.1068 72.3107 33.1368C72.5262 33.7747 72.7214 34.4145 72.8866 35.0414C72.8951 35.0702 72.9143 35.0966 72.9399 35.1121C72.9585 35.1228 72.9794 35.1295 73.0003 35.1295C73.0106 35.1295 73.0209 35.1281 73.0317 35.1244L73.7598 34.9289C73.8235 34.9122 73.86 34.8476 73.8418 34.7851L73.8416 34.7849Z" fill="#FEFEFE"/>
<path d="M70.455 28.6279C70.4738 28.6279 70.4917 28.6242 70.5101 28.6149L71.1799 28.2643C71.2073 28.2497 71.2265 28.2235 71.2369 28.1949C71.2449 28.1632 71.2421 28.1319 71.2295 28.1027C71.0688 27.8006 70.9063 27.4982 70.7394 27.1996C70.7244 27.1725 70.7005 27.1528 70.6693 27.1431C70.6379 27.1342 70.607 27.138 70.5788 27.154L69.9214 27.5269C69.8952 27.5413 69.8728 27.5678 69.8652 27.5979C69.8574 27.6283 69.8613 27.6609 69.8769 27.6885C70.04 27.9777 70.1964 28.2695 70.3512 28.5653C70.3719 28.6057 70.4121 28.6279 70.455 28.6279Z" fill="#FEFEFE"/>
<path d="M66.4902 21.3035L65.9142 21.7933C65.8905 21.8141 65.8753 21.8416 65.8724 21.8743C65.87 21.9044 65.8799 21.9359 65.9002 21.9608C66.9735 23.2306 67.966 24.5815 68.8535 25.9732C68.8764 26.0088 68.9144 26.0286 68.9518 26.0286C68.9727 26.0286 68.9961 26.0231 69.0143 26.0099L69.6526 25.6002C69.6806 25.5845 69.6985 25.5557 69.7052 25.5256C69.7104 25.4966 69.7052 25.464 69.6896 25.4376C68.7772 24.0091 67.7579 22.6217 66.6569 21.3165C66.6129 21.2667 66.5396 21.2629 66.4904 21.3033L66.4902 21.3035Z" fill="#FEFEFE"/>
<path d="M63.8844 19.5861C63.838 19.6334 63.838 19.7066 63.8844 19.7539C64.3452 20.2213 64.804 20.7106 65.2481 21.2079C65.2708 21.233 65.2993 21.2383 65.3354 21.2474C65.3645 21.2474 65.393 21.2367 65.4141 21.2172L65.9768 20.7106C66.0248 20.6672 66.0285 20.5917 65.9844 20.544C65.5365 20.0392 65.0647 19.5362 64.5842 19.0505C64.5617 19.0282 64.5332 19.0154 64.5023 19.0154C64.4705 19.0154 64.44 19.0282 64.4184 19.0505L63.8844 19.5861Z" fill="#FEFEFE"/>
<path d="M60.2243 16.4862C60.2293 16.4862 60.2346 16.4862 60.2408 16.4848C60.2721 16.4811 60.2996 16.4652 60.318 16.4387L60.7742 15.8339C60.813 15.7819 60.8022 15.7072 60.751 15.6693C60.4794 15.4608 60.2045 15.2581 59.9296 15.0616C59.8775 15.0226 59.8046 15.0333 59.7661 15.0883L59.3257 15.7031C59.2864 15.7574 59.2993 15.8312 59.3514 15.8681C59.6197 16.0621 59.8878 16.2611 60.154 16.4625C60.1746 16.4766 60.1981 16.4862 60.2245 16.4862H60.2243Z" fill="#FEFEFE"/>
<path d="M53.2991 12.5299C54.7427 13.0797 56.2235 13.8313 57.7047 14.7604C57.7256 14.7734 57.7466 14.7788 57.7674 14.7788C57.7782 14.7788 57.786 14.7775 57.7936 14.7765C57.8246 14.7684 57.8508 14.7498 57.8667 14.7239L58.2675 14.0798C58.3019 14.0248 58.2859 13.9513 58.2314 13.9173C56.6994 12.9551 55.1595 12.1764 53.6528 11.5988C53.594 11.5792 53.5235 11.6068 53.5 11.6682L53.2318 12.3777C53.2196 12.4067 53.2216 12.4398 53.2343 12.467C53.2465 12.4971 53.271 12.5192 53.2993 12.5299H53.2991Z" fill="#FEFEFE"/>
<path d="M52.7559 11.4039C52.7754 11.3413 52.7415 11.2745 52.6817 11.2544C52.0069 11.0323 51.3346 10.8529 50.6805 10.721C50.6178 10.708 50.5553 10.7487 50.5424 10.8126L50.3915 11.5549C50.3842 11.5849 50.3915 11.6161 50.4073 11.643C50.4251 11.6686 50.4521 11.6871 50.4827 11.6933C51.1052 11.8236 51.7439 11.9922 52.374 12.2013C52.3873 12.2054 52.399 12.2084 52.4109 12.2084C52.4291 12.2084 52.4472 12.2029 52.4652 12.1938C52.492 12.1791 52.5136 12.1557 52.5228 12.1255L52.7561 11.4041L52.7559 11.4039Z" fill="#FEFEFE"/>
<path d="M71.6331 40.4573C71.6556 40.472 71.6793 40.4811 71.7052 40.4811C71.7103 40.4811 71.716 40.4811 71.7211 40.4801L72.4699 40.3763C72.5025 40.3725 72.5301 40.3565 72.5482 40.3304C72.5678 40.3054 72.5755 40.2752 72.5714 40.2428C72.5234 39.9037 72.4742 39.567 72.4192 39.2306C72.4084 39.1651 72.3516 39.1375 72.2848 39.1311L71.5385 39.253C71.5086 39.2567 71.4813 39.2767 71.463 39.3012C71.445 39.3279 71.437 39.3575 71.4409 39.3877C71.494 39.7177 71.5445 40.0477 71.5897 40.379C71.5932 40.409 71.6093 40.4379 71.6332 40.4574L71.6331 40.4573Z" fill="#FEFEFE"/>
<path d="M71.1171 37.5041C71.1354 37.5174 71.1589 37.522 71.1797 37.522C71.1889 37.522 71.1967 37.5212 71.2055 37.5201L71.943 37.3531C72.0066 37.3401 72.0473 37.2759 72.0328 37.212C71.6642 35.5601 71.1772 33.9067 70.5867 32.2991C70.5755 32.2691 70.5545 32.2468 70.526 32.2322C70.4971 32.2219 70.4657 32.2203 70.4344 32.2297L69.7276 32.4928C69.6684 32.5152 69.6348 32.5832 69.6576 32.6446C70.2366 34.2182 70.7093 35.8285 71.0651 37.4306C71.0702 37.4606 71.0913 37.487 71.1173 37.5041H71.1171Z" fill="#FEFEFE"/>
<path d="M69.4072 31.7856C69.4219 31.7856 69.4373 31.7831 69.4519 31.7764L70.1525 31.4964C70.1808 31.4857 70.2046 31.4626 70.2173 31.4338C70.2302 31.406 70.2302 31.3732 70.2173 31.3442C69.9727 30.7175 69.6994 30.0823 69.4111 29.4591C69.3969 29.4307 69.3736 29.4093 69.3431 29.3976C69.316 29.3887 69.2822 29.3887 69.2546 29.402L68.5711 29.7211C68.5114 29.7486 68.4848 29.8205 68.5123 29.878C68.7873 30.471 69.0502 31.0876 69.2992 31.7095C69.3174 31.7581 69.3628 31.7855 69.407 31.7855L69.4072 31.7856Z" fill="#FEFEFE"/>
<path d="M66.2285 25.5585C66.2499 25.5585 66.2733 25.5518 66.2928 25.54L66.927 25.1287C66.9808 25.092 66.9952 25.0194 66.9626 24.9653C66.7759 24.675 66.5887 24.3881 66.3957 24.1075C66.3565 24.0536 66.2837 24.0408 66.2333 24.0792L65.6091 24.5057C65.5829 24.5228 65.5649 24.5515 65.5604 24.5815C65.5542 24.6134 65.5604 24.6445 65.5792 24.6698C65.7648 24.9432 65.9479 25.2207 66.13 25.5033C66.1521 25.5375 66.1899 25.5587 66.2285 25.5587V25.5585Z" fill="#FEFEFE"/>
<path d="M64.4076 23.0633C64.431 23.0932 64.4653 23.1092 64.502 23.1092C64.5261 23.1092 64.5514 23.1014 64.5721 23.0843L65.1686 22.6179C65.1934 22.5968 65.2104 22.5693 65.2131 22.5378C65.2178 22.5062 65.2077 22.4766 65.1893 22.4517C64.081 21.0249 62.8995 19.7626 61.6801 18.6993C61.6564 18.6798 61.6279 18.6746 61.5939 18.6709C61.5629 18.6735 61.5342 18.6879 61.5131 18.7125L61.0206 19.2846C60.9779 19.3344 60.9844 19.4077 61.0328 19.4508C62.201 20.4709 63.3371 21.684 64.4076 23.0629V23.0633Z" fill="#FEFEFE"/>
<path d="M59.028 16.8881L58.6318 17.5333C58.6162 17.5597 58.6111 17.5928 58.6173 17.6223C58.6255 17.6538 58.6437 17.6803 58.671 17.6944C59.197 18.0207 59.7366 18.3989 60.2747 18.8216C60.2966 18.8385 60.32 18.8476 60.3466 18.8476C60.3827 18.8476 60.4167 18.8323 60.4389 18.802L60.9038 18.2049C60.9457 18.1541 60.9367 18.0796 60.8843 18.0402C60.3232 17.5949 59.7508 17.1948 59.1897 16.85C59.1336 16.8148 59.0594 16.8322 59.0284 16.8883L59.028 16.8881Z" fill="#FEFEFE"/>
<path d="M70.1085 49.1867C70.1345 49.1867 70.1595 49.1773 70.1813 49.1618C70.2048 49.1423 70.2218 49.1141 70.2259 49.083C70.434 47.4715 70.541 45.8156 70.541 44.1605V43.971C70.541 43.9072 70.4864 43.8517 70.4221 43.8517H69.668C69.6041 43.8517 69.5513 43.9074 69.5513 43.971V44.1605C69.5497 45.7735 69.4459 47.386 69.2436 48.9534C69.2332 49.0173 69.2801 49.0776 69.3437 49.0855L70.0923 49.1848C70.098 49.1864 70.1032 49.1864 70.1086 49.1864L70.1085 49.1867Z" fill="#FEFEFE"/>
<path d="M69.4436 40.8933C69.4228 40.9183 69.415 40.9498 69.415 40.9797C69.4715 41.637 69.5089 42.3084 69.5293 42.9749C69.5334 43.0406 69.586 43.0901 69.6478 43.0901H69.6517L70.4077 43.0678C70.4387 43.0666 70.4671 43.0522 70.4894 43.0299C70.5101 43.0077 70.5221 42.9762 70.5221 42.9461C70.5002 42.2795 70.4621 41.5911 70.4049 40.8985C70.4024 40.8658 70.387 40.8383 70.3633 40.8172C70.3411 40.799 70.3117 40.7949 70.2772 40.7883L69.5245 40.8529C69.4931 40.8551 69.4646 40.8711 69.4434 40.8933H69.4436Z" fill="#FEFEFE"/>
<path d="M68.8082 36.1409L69.5432 35.9723C69.6059 35.9593 69.6459 35.8936 69.6317 35.8306C69.5561 35.4956 69.4778 35.1648 69.3917 34.8348C69.3747 34.7716 69.3083 34.7273 69.249 34.7508L68.5197 34.9382C68.4557 34.9537 68.4178 35.0179 68.4347 35.0807C68.5142 35.4011 68.5926 35.7251 68.6679 36.0508C68.6798 36.107 68.7283 36.1435 68.7821 36.1435C68.7915 36.1435 68.7981 36.1426 68.8082 36.1409Z" fill="#FEFEFE"/>
<path d="M68.8244 32.8618C68.264 31.1312 67.5864 29.5405 66.805 28.1333C66.7724 28.0731 66.6943 28.0505 66.6463 28.0876L65.9839 28.4564C65.9584 28.4722 65.9373 28.496 65.9281 28.5274C65.9203 28.5571 65.9246 28.59 65.9398 28.6162C66.6877 29.9657 67.3416 31.4991 67.8811 33.1709C67.891 33.2008 67.9121 33.2243 67.9394 33.2393C67.9565 33.2482 67.9746 33.2533 67.993 33.2533C68.0063 33.2533 68.0176 33.2508 68.03 33.2466L68.7487 33.0109C68.8102 32.9915 68.8424 32.9244 68.8244 32.8618Z" fill="#FEFEFE"/>
<path d="M64.929 25.5151L64.335 25.9876C64.3113 26.0074 64.2957 26.0352 64.2936 26.0667C64.2881 26.0976 64.2973 26.1293 64.3169 26.1541C64.7025 26.6373 65.0776 27.1793 65.44 27.7618C65.455 27.7903 65.4828 27.809 65.5131 27.8152C65.5204 27.8181 65.5307 27.8197 65.539 27.8197C65.5608 27.8197 65.5833 27.8129 65.6013 27.8012L66.2449 27.3991C66.2997 27.3649 66.3154 27.2921 66.2814 27.2357C65.9031 26.6241 65.5046 26.0519 65.0932 25.5336C65.0546 25.4825 64.9786 25.4747 64.9292 25.5154L64.929 25.5151Z" fill="#FEFEFE"/>
<path d="M68.5739 43.9973C68.6366 43.9973 68.6885 43.946 68.6911 43.8836C68.7044 43.5262 68.7092 43.1739 68.7092 42.8229C68.7092 41.3883 68.6077 40.015 68.4046 38.7436C68.3994 38.7123 68.3814 38.685 68.3566 38.6665C68.3318 38.6469 68.2974 38.6427 68.2685 38.6444L67.5236 38.7657C67.4597 38.7778 67.4158 38.8377 67.4264 38.9018C67.6201 40.1237 67.7193 41.4419 67.7193 42.8217C67.7193 43.1591 67.713 43.5035 67.7013 43.8478C67.7013 43.8803 67.711 43.9094 67.7321 43.9332C67.7532 43.9555 67.7831 43.9695 67.813 43.9709L68.5687 43.9973H68.5739Z" fill="#FEFEFE"/>
<path d="M67.5299 35.6396L66.8155 35.8822C66.7525 35.9029 66.72 35.9702 66.7395 36.031C66.9379 36.623 67.1074 37.2616 67.2476 37.9296C67.2584 37.9841 67.308 38.0236 67.3621 38.0236C67.3702 38.0236 67.378 38.0213 67.3856 38.0199L68.1257 37.8641C68.1569 37.8586 68.1831 37.8405 68.1999 37.8141C68.2171 37.788 68.2223 37.7554 68.2171 37.7249C68.0661 37.0023 67.8835 36.327 67.6787 35.7156C67.6569 35.6528 67.5891 35.6147 67.5299 35.6394V35.6396Z" fill="#FEFEFE"/>
<path d="M1.25836 43.6856C1.14413 43.0429 1.05257 42.3829 0.987391 41.7237C0.979421 41.6605 0.923101 41.5976 0.857394 41.6186L0.106813 41.6945C0.0754651 41.6973 0.0469508 41.713 0.025875 41.7368C0.00745585 41.76 -0.00246216 41.7917 -0.000159765 41.8244C0.0689121 42.5036 0.163842 43.1912 0.28516 43.865C0.290828 43.8951 0.307121 43.9215 0.333865 43.9398C0.353524 43.9542 0.37761 43.962 0.400988 43.962C0.407541 43.962 0.414271 43.9606 0.422064 43.9606L1.16485 43.8246C1.22879 43.8131 1.27147 43.7513 1.25854 43.686L1.25836 43.6856Z" fill="#FEFEFE"/>
<path d="M1.4577 41.2139C1.62701 41.8527 1.82626 42.5154 2.0503 43.1833C2.06057 43.2118 2.08165 43.2367 2.10928 43.2512C2.12628 43.2592 2.14434 43.2631 2.16135 43.2631C2.17427 43.2631 2.18614 43.2604 2.19942 43.2563L2.91565 43.0141C2.94398 43.0023 2.97002 42.9815 2.98295 42.9539C2.99658 42.9265 2.99906 42.8936 2.98879 42.8623C2.76953 42.2112 2.57649 41.5715 2.41266 40.9574C2.40646 40.927 2.3868 40.901 2.35953 40.8852C2.33172 40.8707 2.30037 40.8643 2.26938 40.8736L1.53988 41.0687C1.47753 41.0868 1.44087 41.1511 1.4577 41.2137V41.2139Z" fill="#FEFEFE"/>
<path d="M1.47446 34.9917C1.45286 34.9723 1.42293 34.9617 1.39441 34.9617H1.38892L0.633735 34.9946C0.569268 34.9973 0.518439 35.0523 0.521627 35.1172C0.591761 36.8112 0.823594 38.5264 1.21057 40.2129C1.2235 40.2679 1.27203 40.3042 1.32499 40.3042C1.33419 40.3042 1.34199 40.3028 1.3512 40.3021L2.0869 40.1314C2.11683 40.1237 2.14446 40.1052 2.15987 40.079C2.17705 40.0529 2.18218 40.0217 2.17581 39.9897C1.80034 38.3559 1.57789 36.7013 1.51095 35.0754C1.51095 35.0427 1.49678 35.014 1.47429 34.9916L1.47446 34.9917Z" fill="#FEFEFE"/>
<path d="M1.3842 33.206H1.38951C1.45221 33.206 1.50374 33.1563 1.50676 33.0919C1.51968 32.7608 1.53669 32.4324 1.56095 32.1012C1.56644 32.0373 1.51827 31.9796 1.45451 31.9732L0.701448 31.9154C0.667798 31.9129 0.63893 31.9236 0.615728 31.9442C0.591996 31.964 0.576234 31.9937 0.573931 32.0245C0.547896 32.3685 0.528237 32.7151 0.516726 33.0554C0.513715 33.1227 0.565961 33.1763 0.629543 33.1787L1.38402 33.2062L1.3842 33.206Z" fill="#FEFEFE"/>
<path d="M0.639108 30.8069L1.3842 30.9349C1.38969 30.9349 1.39748 30.9366 1.40297 30.9366C1.45982 30.9366 1.50959 30.8939 1.52004 30.838C1.62896 30.1949 1.76764 29.5433 1.93164 28.8979C1.93943 28.8679 1.93394 28.8349 1.91835 28.8089C1.90295 28.781 1.87656 28.7628 1.84556 28.7548L1.11287 28.569C1.08329 28.5585 1.05053 28.5639 1.02467 28.5811C0.997397 28.5968 0.977738 28.6224 0.970122 28.6529C0.797974 29.3402 0.654871 30.0182 0.542585 30.6693C0.537449 30.7004 0.545064 30.7335 0.563307 30.7585C0.580309 30.7848 0.608115 30.8003 0.638931 30.8071L0.639108 30.8069Z" fill="#FEFEFE"/>
<path d="M4.77555 43.7668C4.79078 43.7725 4.80672 43.7771 4.82496 43.7771C4.83824 43.7771 4.85117 43.7732 4.86446 43.7695L5.57289 43.5062C5.63452 43.4827 5.6641 43.4149 5.64337 43.3533C5.06494 41.7808 4.59047 40.1707 4.23643 38.5683C4.22829 38.5369 4.21058 38.5108 4.18454 38.4937C4.15815 38.477 4.1245 38.4713 4.09563 38.4794L3.35851 38.6446C3.29582 38.6587 3.25526 38.7217 3.26943 38.7868C3.63445 40.4348 4.12167 42.0885 4.71392 43.7C4.72472 43.7287 4.74721 43.7522 4.77537 43.7668H4.77555Z" fill="#FEFEFE"/>
<path d="M3.85859 36.6099C3.80652 36.2799 3.75569 35.9513 3.71123 35.6213C3.70734 35.5914 3.69175 35.5613 3.66554 35.5426C3.64216 35.5247 3.61188 35.5127 3.57929 35.5204L2.82942 35.6211C2.79913 35.6265 2.77062 35.6411 2.75184 35.6662C2.73272 35.6918 2.72492 35.7233 2.73006 35.7539C2.77469 36.0941 2.82534 36.4329 2.88095 36.7695C2.88644 36.8024 2.90238 36.83 2.92824 36.8469C2.94896 36.863 2.97252 36.8703 2.99625 36.8703C3.00387 36.8703 3.00918 36.8692 3.01697 36.8692L3.76224 36.7466C3.82458 36.7345 3.86904 36.6754 3.85841 36.61L3.85859 36.6099Z" fill="#FEFEFE"/>
<path d="M3.30514 30.77H3.30815C3.33826 30.77 3.3666 30.7583 3.38856 30.7358C3.41176 30.7147 3.42345 30.6848 3.42663 30.6545C3.43956 29.9881 3.47622 29.3194 3.53325 28.6669C3.53874 28.6028 3.49146 28.5443 3.42663 28.5391L2.67375 28.4724C2.64754 28.4604 2.61088 28.4786 2.5875 28.4983C2.56394 28.5179 2.54836 28.5469 2.54588 28.5781C2.48602 29.2655 2.44812 29.9568 2.43359 30.6308C2.43359 30.6976 2.48619 30.7517 2.55084 30.7528L3.30514 30.7698V30.77Z" fill="#FEFEFE"/>
<path d="M3.50479 27.781C3.5101 27.7825 3.5156 27.7825 3.52073 27.7825C3.54677 27.7825 3.57174 27.7736 3.59246 27.7576C3.6169 27.7366 3.63302 27.7106 3.63621 27.6775C3.84112 26.0177 4.19268 24.388 4.68557 22.8285C4.69566 22.7984 4.69177 22.7671 4.6776 22.7397C4.66467 22.7119 4.63846 22.6897 4.60817 22.6802L3.88805 22.4515C3.82819 22.4277 3.76036 22.4645 3.74194 22.5286C3.23134 24.1376 2.86703 25.8303 2.65468 27.5557C2.64688 27.62 2.6924 27.6789 2.75758 27.6862L3.50497 27.7809L3.50479 27.781Z" fill="#FEFEFE"/>
<path d="M5.20305 21.0287C5.21722 21.0349 5.23139 21.0376 5.24768 21.0376C5.26291 21.0376 5.27832 21.0349 5.29302 21.0287C5.3226 21.0171 5.34367 20.9933 5.3566 20.9643C5.47279 20.675 5.59906 20.3767 5.74518 20.0522C5.75793 20.022 5.76059 19.9892 5.74872 19.9608C5.73703 19.9316 5.71489 19.9065 5.68744 19.8949L4.99885 19.5822C4.94146 19.5548 4.86974 19.5822 4.8437 19.6411C4.69918 19.9592 4.56352 20.2799 4.43866 20.5899C4.41386 20.6514 4.4422 20.7195 4.50242 20.7444L5.20323 21.0287H5.20305Z" fill="#FEFEFE"/>
<path d="M5.97419 18.8935C5.99243 18.9053 6.01245 18.9094 6.03193 18.9094C6.07337 18.9094 6.11198 18.8878 6.13483 18.8489C6.45344 18.2891 6.80677 17.7218 7.18189 17.1681C7.21855 17.1144 7.2042 17.041 7.15178 17.0056L6.52659 16.5775C6.50055 16.5594 6.46779 16.553 6.43803 16.5594C6.40669 16.5629 6.38083 16.5816 6.36241 16.6074C5.97171 17.1859 5.60528 17.7756 5.27568 18.3571C5.26063 18.3841 5.25496 18.4171 5.26434 18.4462C5.2732 18.4776 5.2918 18.5036 5.31889 18.518L5.97419 18.8937V18.8935Z" fill="#FEFEFE"/>
<path d="M8.56652 47.9232C8.57697 47.9273 8.58778 47.9289 8.59769 47.9289C8.61859 47.9289 8.63985 47.9232 8.65649 47.9129L9.31693 47.5439C9.34438 47.5281 9.36421 47.5042 9.37289 47.4725C9.38228 47.4414 9.37714 47.4097 9.3628 47.3839C8.61115 46.0287 7.95692 44.4969 7.4194 42.8279C7.41019 42.7991 7.3877 42.7743 7.36078 42.7612C7.33191 42.7444 7.30056 42.7414 7.26903 42.7533L6.55299 42.9893C6.49153 43.0084 6.45771 43.0753 6.47719 43.1383C7.03206 44.8573 7.71233 46.4491 8.49621 47.8668C8.51233 47.8945 8.53695 47.9155 8.5667 47.9232H8.56652Z" fill="#FEFEFE"/>
<path d="M5.75783 40.0253C5.69549 40.0397 5.65617 40.1027 5.66963 40.1679C5.74349 40.5032 5.82301 40.8355 5.90802 41.1653C5.92201 41.2192 5.96912 41.2548 6.02119 41.2548C6.03164 41.2548 6.04085 41.252 6.04953 41.2497L6.78169 41.0621C6.84403 41.0464 6.88299 40.9822 6.86776 40.9183C6.78576 40.5975 6.70854 40.2741 6.63345 39.9471C6.61999 39.8825 6.55251 39.8475 6.49283 39.8576L5.75783 40.0253Z" fill="#FEFEFE"/>
<path d="M5.88334 35.0188C5.83003 34.362 5.79107 33.6919 5.76893 33.0227C5.76645 32.96 5.71385 32.9091 5.65168 32.9091H5.64761L4.89243 32.9324C4.86214 32.9338 4.83097 32.9479 4.81042 32.9694C4.78899 32.9924 4.77748 33.0228 4.77837 33.0543C4.7998 33.7223 4.83876 34.4108 4.89561 35.1018C4.8988 35.1333 4.91403 35.1621 4.93776 35.1829C4.95849 35.2 4.98611 35.2107 5.01321 35.2107H5.02402L5.77672 35.1477C5.84066 35.1413 5.8883 35.0848 5.88334 35.019V35.0188Z" fill="#FEFEFE"/>
<path d="M5.11925 26.8382C5.09676 26.858 5.07905 26.8858 5.07497 26.9173C4.86687 28.5311 4.76025 30.1885 4.76025 31.8383V32.0277C4.76025 32.0925 4.81232 32.1457 4.8775 32.1457H5.63322C5.69804 32.1457 5.74975 32.0923 5.74975 32.0277V31.8383C5.75152 30.2279 5.85407 28.6151 6.05739 27.0469C6.06518 26.9815 6.0209 26.9214 5.95608 26.9146L5.20851 26.8151C5.17858 26.8073 5.14582 26.8205 5.11907 26.8386L5.11925 26.8382Z" fill="#FEFEFE"/>
<path d="M5.73999 23.7934C5.67464 23.7845 5.61194 23.8212 5.59919 23.8854C5.52622 24.219 5.45857 24.5543 5.39605 24.891C5.38418 24.9564 5.42616 25.0178 5.48992 25.0281L6.23235 25.1678C6.23713 25.1694 6.24563 25.1705 6.25325 25.1705C6.30762 25.1705 6.35739 25.1317 6.36784 25.0742C6.43053 24.7474 6.49518 24.4219 6.56584 24.0944C6.57984 24.0315 6.53945 23.9687 6.47711 23.9561L5.73999 23.7934Z" fill="#FEFEFE"/>
<path d="M7.13372 19.1224L7.83737 19.3962C7.85012 19.4001 7.86606 19.4029 7.87935 19.4029C7.92628 19.4029 7.9702 19.3739 7.98898 19.3278C8.23356 18.697 8.49355 18.0817 8.76736 17.4993C8.78029 17.4705 8.78189 17.4374 8.77108 17.4087C8.76258 17.3783 8.73867 17.3553 8.7098 17.3404L8.02617 17.0186C7.96879 16.999 7.89741 17.0186 7.87014 17.0763C7.58092 17.6982 7.30977 18.3334 7.06625 18.9679C7.04287 19.0295 7.07121 19.0977 7.13372 19.1222V19.1224Z" fill="#FEFEFE"/>
<path d="M9.04385 16.6564C9.06085 16.6653 9.07997 16.6696 9.09893 16.6696C9.11026 16.6696 9.12213 16.668 9.13364 16.6642C9.16375 16.6535 9.18872 16.6327 9.20271 16.6053C9.96339 15.1072 10.8493 13.6977 11.8381 12.4126C11.8772 12.3601 11.8682 12.2866 11.8159 12.2462L11.2194 11.7811C11.1936 11.7624 11.1633 11.7519 11.1309 11.7572C11.1009 11.7603 11.0719 11.7784 11.0528 11.8021C10.0286 13.1386 9.10902 14.6008 8.31895 16.1511C8.29096 16.2103 8.31434 16.2805 8.37155 16.3095L9.04385 16.6564Z" fill="#FEFEFE"/>
<path d="M12.9369 10.8974C12.9593 10.9169 12.9883 10.9276 13.0168 10.9276C13.0478 10.926 13.0818 10.9144 13.1038 10.8883C13.3246 10.6432 13.5483 10.4029 13.7798 10.166C13.8009 10.1434 13.8141 10.1121 13.8141 10.0816C13.8141 10.0501 13.8002 10.0204 13.7775 9.99816L13.2366 9.469C13.1888 9.42201 13.1171 9.4245 13.0717 9.47024C12.8316 9.71676 12.5962 9.96915 12.3682 10.2203C12.3475 10.2443 12.3367 10.2742 12.3399 10.3055C12.3399 10.3374 12.3539 10.3662 12.3769 10.3883L12.9371 10.8974H12.9369Z" fill="#FEFEFE"/>
<path d="M14.3867 9.15877C14.4088 9.1876 14.4418 9.20113 14.4754 9.20113C14.5029 9.20113 14.5302 9.19152 14.5511 9.17372C15.0562 8.74672 15.5799 8.33539 16.1093 7.95325C16.1337 7.93367 16.1507 7.90608 16.1562 7.876C16.161 7.8445 16.1532 7.81442 16.1351 7.78825L15.6932 7.17134C15.6559 7.11795 15.5799 7.1062 15.5292 7.145C14.9836 7.5396 14.4405 7.96589 13.9129 8.41086C13.889 8.43044 13.874 8.46105 13.871 8.49113C13.8685 8.5237 13.8788 8.55378 13.8998 8.5787L14.3867 9.15859V9.15877Z" fill="#FEFEFE"/>
<path d="M7.7301 40.3629C7.74338 40.3629 7.75507 40.3619 7.76817 40.3564L8.48316 40.1171C8.54585 40.0947 8.57932 40.0292 8.55878 39.968C8.35812 39.3666 8.18916 38.7278 8.05119 38.0681C8.04605 38.0366 8.02764 38.0105 8.00178 37.9936C7.97503 37.9749 7.94404 37.9713 7.91269 37.9763L7.17256 38.1336C7.14157 38.1402 7.11571 38.1584 7.09711 38.1845C7.08171 38.2109 7.07498 38.2438 7.08171 38.2739C7.2326 38.9846 7.41237 39.6611 7.61816 40.2804C7.63552 40.3305 7.68068 40.3631 7.72992 40.3631L7.7301 40.3629Z" fill="#FEFEFE"/>
<path d="M6.60587 32.1146C6.594 32.4702 6.58887 32.8251 6.58887 33.1761C6.58887 34.6055 6.69141 35.9776 6.89349 37.2542C6.90376 37.3117 6.95371 37.3533 7.01038 37.3533C7.01623 37.3533 7.02349 37.3522 7.02916 37.3522L7.77407 37.2333C7.80524 37.2293 7.83287 37.2122 7.85076 37.1858C7.86953 37.1609 7.87715 37.1283 7.87307 37.0983C7.6779 35.8712 7.57872 34.5509 7.57872 33.1759C7.57872 32.8354 7.58439 32.4939 7.59714 32.1482C7.59714 32.117 7.58651 32.088 7.56437 32.0644C7.54365 32.0409 7.51337 32.0275 7.4822 32.025L6.72666 31.9989C6.66184 31.983 6.60693 32.0487 6.60587 32.1142V32.1146Z" fill="#FEFEFE"/>
<path d="M7.59997 30.266C7.60404 30.2686 7.60794 30.2686 7.61201 30.2686C7.63946 30.2686 7.66568 30.2597 7.68622 30.2396C7.70995 30.2199 7.72518 30.1925 7.72926 30.1597C7.76167 29.8313 7.79833 29.5017 7.8403 29.1703C7.84491 29.1402 7.83605 29.1074 7.81657 29.0825C7.79815 29.0576 7.76928 29.0407 7.73811 29.038L6.99019 28.9408C6.95919 28.9319 6.92785 28.9462 6.90181 28.9643C6.87879 28.9843 6.86285 29.0119 6.85754 29.043C6.8145 29.3847 6.7766 29.7263 6.74312 30.0631C6.74047 30.0956 6.74968 30.1273 6.76898 30.1506C6.7897 30.1745 6.81716 30.19 6.84992 30.1926L7.59997 30.2661V30.266Z" fill="#FEFEFE"/>
<path d="M8.4441 22.0523C8.23529 22.6874 8.03852 23.3472 7.85734 24.0162C7.83981 24.0803 7.87735 24.1444 7.94023 24.1615L8.6692 24.3617C8.67859 24.3644 8.68886 24.3669 8.69949 24.3669C8.72021 24.3669 8.74111 24.3606 8.75793 24.3512C8.78538 24.3357 8.80664 24.3094 8.81408 24.2779C8.98888 23.6352 9.17998 22.9901 9.38472 22.3638C9.39499 22.3337 9.39286 22.302 9.37852 22.2725C9.36382 22.2447 9.34008 22.2235 9.30998 22.2146L8.59251 21.9779C8.53265 21.9539 8.46376 21.9905 8.44428 22.0521L8.4441 22.0523Z" fill="#FEFEFE"/>
<path d="M10.9716 16.3355C10.9144 16.3066 10.8425 16.3266 10.8126 16.3864C10.0388 17.8843 9.35236 19.4656 8.77552 21.0849C8.76525 21.1143 8.76737 21.1467 8.78065 21.1755C8.79323 21.2033 8.81696 21.2264 8.84707 21.236L9.5601 21.49C9.57303 21.4938 9.58578 21.4975 9.59889 21.4975C9.64565 21.4975 9.69152 21.4664 9.70781 21.4192C10.2694 19.8458 10.9362 18.3058 11.6907 16.844C11.7063 16.8164 11.7089 16.7835 11.6981 16.7548C11.6895 16.7244 11.6686 16.6996 11.6415 16.6856L10.9716 16.3356V16.3355Z" fill="#FEFEFE"/>
<path d="M11.7905 14.6807C11.7984 14.7118 11.8178 14.7384 11.845 14.7531L12.4948 15.1417C12.5125 15.1522 12.5345 15.1588 12.5543 15.1588C12.5643 15.1588 12.5735 15.1559 12.5843 15.1536C12.6123 15.1454 12.639 15.1273 12.6558 15.0999C12.8244 14.8128 12.9982 14.5289 13.1758 14.2473C13.2093 14.1909 13.1937 14.1193 13.1376 14.0837L12.5003 13.6791C12.4474 13.6441 12.3732 13.6622 12.3393 13.716C12.1566 14.0054 11.9768 14.2973 11.8034 14.5917C11.7884 14.6177 11.7839 14.6506 11.7907 14.6807H11.7905Z" fill="#FEFEFE"/>
<path d="M15.3609 9.68384C15.3629 9.71553 15.3769 9.74418 15.3999 9.76643L15.9693 10.2662C15.9913 10.2862 16.0192 10.2951 16.0462 10.2951C16.0805 10.2951 16.1115 10.281 16.1352 10.2557C16.5784 9.74774 17.0335 9.25987 17.4882 8.80191C17.5107 8.78073 17.5239 8.75207 17.5239 8.71879C17.5239 8.68871 17.5119 8.65756 17.4898 8.63638L16.9558 8.09849C16.9115 8.05239 16.8361 8.05239 16.7902 8.09849C16.3093 8.58049 15.8382 9.0858 15.3902 9.59752C15.3693 9.62226 15.359 9.65358 15.3611 9.68384H15.3609Z" fill="#FEFEFE"/>
<path d="M18.1226 8.14423C18.1538 8.14423 18.1826 8.13248 18.2035 8.11272C19.4254 6.97128 20.7393 5.95158 22.1089 5.07836C22.1346 5.06128 22.1532 5.03493 22.1608 5.00485C22.167 4.97371 22.1608 4.94238 22.1449 4.91586L21.7398 4.27474C21.7037 4.21939 21.6305 4.2039 21.5772 4.2379C20.1574 5.14333 18.7947 6.20023 17.5298 7.38475C17.4816 7.4296 17.48 7.50258 17.5232 7.55117L18.0369 8.10578C18.0601 8.1307 18.0964 8.15028 18.1228 8.14405L18.1226 8.14423Z" fill="#FEFEFE"/>
<path d="M23.7575 4.09781C23.7759 4.09781 23.7956 4.0939 23.813 4.085C24.1015 3.93068 24.3967 3.78081 24.6939 3.63575C24.7532 3.60799 24.7768 3.53804 24.7493 3.47859L24.4222 2.79529C24.3951 2.73673 24.325 2.71288 24.266 2.74029C23.9624 2.88535 23.6619 3.03735 23.3495 3.20395C23.2916 3.2351 23.2705 3.30612 23.2997 3.36325L23.6536 4.03534C23.6746 4.07574 23.7163 4.09799 23.7575 4.09799V4.09781Z" fill="#FEFEFE"/>
<path d="M25.6665 2.96795C25.6839 2.97471 25.6991 2.97845 25.7165 2.97845C25.7308 2.97845 25.7437 2.97613 25.7565 2.97222C26.3634 2.74813 26.9941 2.54131 27.6352 2.36065C27.6652 2.35157 27.6896 2.33021 27.7054 2.30298C27.7213 2.27717 27.7245 2.24531 27.7158 2.21416L27.5099 1.48494C27.4932 1.42087 27.4291 1.38794 27.3643 1.40235C26.7076 1.5896 26.054 1.80283 25.4168 2.03724C25.3865 2.04756 25.3635 2.07017 25.3502 2.09865C25.3371 2.12641 25.3355 2.15881 25.3474 2.18782L25.6056 2.90013C25.6171 2.93128 25.6382 2.95513 25.6667 2.96795H25.6665Z" fill="#FEFEFE"/>
<path d="M9.52767 29.9737C9.55654 29.9737 9.58559 29.9621 9.60896 29.9411C9.62969 29.9199 9.64439 29.8888 9.64545 29.8584C9.65944 29.2422 9.71558 28.5834 9.81228 27.9001C9.81972 27.8359 9.77527 27.7761 9.71204 27.7666L8.96553 27.6609C8.90054 27.6477 8.84156 27.6976 8.83288 27.7599C8.73069 28.4681 8.67136 29.1662 8.65382 29.8324C8.65276 29.8965 8.70519 29.9531 8.76859 29.9541L9.52448 29.9735H9.52785L9.52767 29.9737Z" fill="#FEFEFE"/>
<path d="M11.3326 22.0288L10.6329 21.7435C10.603 21.7303 10.5704 21.7303 10.5415 21.7435C10.5126 21.7552 10.4907 21.7785 10.4788 21.8072C9.80172 23.4936 9.3067 25.1521 9.00172 26.7418C8.99659 26.7733 9.00296 26.8028 9.02032 26.8297C9.03839 26.8553 9.06566 26.8738 9.09577 26.8779L9.83802 27.0207C9.84458 27.0217 9.8529 27.0233 9.85946 27.0233C9.91524 27.0233 9.96466 26.9824 9.97475 26.9262C10.2654 25.4024 10.745 23.8041 11.396 22.182C11.4208 22.1205 11.3921 22.0525 11.3326 22.029V22.0288Z" fill="#FEFEFE"/>
<path d="M12.0916 20.4241C12.1357 20.4241 12.1773 20.3988 12.1979 20.3554C12.3388 20.0599 12.486 19.7602 12.6387 19.4627C12.6679 19.4053 12.6465 19.3346 12.587 19.3045L11.9164 18.9574C11.8629 18.9286 11.7886 18.9501 11.7593 19.0076C11.6012 19.3123 11.4489 19.6199 11.3017 19.9294C11.2888 19.9565 11.2888 19.9882 11.2982 20.0193C11.3091 20.0483 11.3306 20.0736 11.3589 20.0864L12.0415 20.4123C12.0574 20.42 12.0741 20.4242 12.0914 20.4242L12.0916 20.4241Z" fill="#FEFEFE"/>
<path d="M15.7048 12.9369C15.6733 12.9396 15.645 12.9565 15.6266 12.9816C15.2043 13.5195 14.7956 14.073 14.407 14.6257C14.3889 14.6506 14.3808 14.6817 14.3877 14.7138C14.3928 14.7439 14.41 14.7723 14.4359 14.7894L15.0534 15.2285C15.0731 15.2415 15.0963 15.2494 15.1211 15.2494C15.1581 15.2494 15.1942 15.2308 15.2162 15.1981C15.5927 14.6641 15.991 14.1264 16.4057 13.596C16.4446 13.5446 16.437 13.4714 16.3846 13.4308L15.7909 12.962C15.7675 12.9412 15.7348 12.9264 15.7048 12.9371V12.9369Z" fill="#FEFEFE"/>
<path d="M20.4577 9.03595L19.9469 8.47689C19.9028 8.43008 19.8295 8.42848 19.78 8.47013C18.5373 9.61922 17.3558 10.8675 16.2682 12.1842C16.2278 12.2355 16.234 12.3086 16.284 12.3505L16.8643 12.835C16.8858 12.8531 16.9118 12.8622 16.9391 12.8622C16.9741 12.8675 17.0081 12.8478 17.0296 12.8204C18.1009 11.5269 19.2512 10.3096 20.4523 9.20469C20.4747 9.1828 20.489 9.15343 20.489 9.12068C20.4915 9.08917 20.4796 9.05909 20.4578 9.03578L20.4577 9.03595Z" fill="#FEFEFE"/>
<path d="M21.3233 7.12328C21.2988 7.14286 21.2841 7.17045 21.2802 7.20337C21.2774 7.2331 21.288 7.2646 21.3063 7.28952L21.788 7.87582C21.8062 7.90127 21.8364 7.91426 21.8666 7.91693C21.8718 7.9196 21.8743 7.9196 21.8785 7.9196C21.9054 7.9196 21.9315 7.90981 21.954 7.89023C22.2076 7.67967 22.4685 7.47303 22.7315 7.26994C22.7826 7.22936 22.7913 7.15496 22.7522 7.10228L22.291 6.50299C22.2504 6.45066 22.1768 6.4414 22.1256 6.48038C21.8548 6.68988 21.5879 6.90435 21.3233 7.12346V7.12328Z" fill="#FEFEFE"/>
<path d="M26.3395 3.73526C26.3304 3.76374 26.3338 3.79685 26.3485 3.82426L26.7117 4.48958C26.7277 4.51717 26.7534 4.53675 26.7822 4.54565C26.7925 4.54992 26.8045 4.55116 26.8162 4.55116C26.8357 4.55116 26.855 4.54565 26.8722 4.53532C27.465 4.20818 28.0601 3.90542 28.6397 3.63612C28.6675 3.62313 28.6893 3.59928 28.6999 3.56938C28.7102 3.53876 28.7092 3.50726 28.6959 3.47878L28.3767 2.79138C28.3486 2.73122 28.2777 2.70381 28.2205 2.73265C27.6161 3.01423 27.0027 3.32838 26.3958 3.66442C26.3682 3.68044 26.3476 3.70429 26.3396 3.73544L26.3395 3.73526Z" fill="#FEFEFE"/>
<path d="M29.3909 3.16853C29.4089 3.21303 29.4523 3.24062 29.4975 3.24062C29.5129 3.24062 29.5288 3.23795 29.5444 3.23119C31.0813 2.57779 32.6629 2.07016 34.2443 1.72326C34.3082 1.70884 34.3483 1.64601 34.3345 1.58318L34.174 0.840792C34.1676 0.81089 34.1492 0.781699 34.1223 0.766214C34.0975 0.749305 34.0647 0.744322 34.0332 0.750551C32.3948 1.11062 30.7549 1.63694 29.1573 2.31365C29.1287 2.32682 29.1064 2.34943 29.0935 2.37915C29.0818 2.40816 29.0834 2.44038 29.0947 2.46975L29.3907 3.16871L29.3909 3.16853Z" fill="#FEFEFE"/>
<path d="M38.3083 0.960938C38.3306 0.983364 38.3603 0.996535 38.3919 0.996535H38.4532C39.09 0.996535 39.7333 1.02039 40.3666 1.06755H40.3744C40.4371 1.06755 40.4887 1.02039 40.4927 0.957378L40.5489 0.20217C40.551 0.168886 40.5411 0.13934 40.52 0.115667C40.5003 0.0905706 40.472 0.0773994 40.4405 0.0747295C39.7356 0.0224007 39.0466 -0.00127185 38.3905 0.000152064C38.3239 0.000152064 38.272 0.0539048 38.272 0.119405L38.2745 0.877105C38.2745 0.910033 38.2863 0.938689 38.3085 0.960938H38.3083Z" fill="#FEFEFE"/>
<path d="M36.1018 1.35003C36.1226 1.36605 36.1458 1.37495 36.172 1.37495C36.1787 1.37495 36.1822 1.37495 36.1886 1.37388C36.5118 1.32778 36.8393 1.28845 37.167 1.25481C37.2321 1.24965 37.2787 1.1918 37.2711 1.12666L37.1969 0.370735C37.1902 0.311999 37.1407 0.265366 37.0805 0.265366C37.077 0.265366 37.0729 0.265366 37.0676 0.2659C36.7125 0.302743 36.3712 0.342079 36.0505 0.388C35.9865 0.3969 35.9426 0.457238 35.9513 0.52256L36.0556 1.27421C36.0597 1.30411 36.0751 1.3317 36.1018 1.35021V1.35003Z" fill="#FEFEFE"/>
<path d="M14.9366 18.8558C14.9261 18.8241 14.9066 18.8003 14.8792 18.7846L14.2124 18.4277C14.1833 18.4117 14.1521 18.4082 14.1219 18.4197C14.0925 18.4277 14.0677 18.4496 14.0528 18.4776C13.7145 19.115 13.4226 19.7486 13.1802 20.3627C13.157 20.4223 13.1871 20.4915 13.2482 20.5154L13.9492 20.7927C13.9632 20.7998 13.9777 20.8025 13.9936 20.8025C14.04 20.8025 14.0848 20.7731 14.1027 20.7275C14.333 20.1411 14.6107 19.5402 14.927 18.9444C14.9415 18.9172 14.9454 18.8841 14.9364 18.8556L14.9366 18.8558Z" fill="#FEFEFE"/>
<path d="M18.3544 13.9477L17.7917 13.4398C17.7712 13.4202 17.7423 13.4097 17.7136 13.4097C17.6819 13.4188 17.6481 13.4253 17.6258 13.449C16.4161 14.801 15.3857 16.189 14.5609 17.5769C14.5439 17.6026 14.5398 17.6355 14.548 17.6658C14.5556 17.6971 14.5739 17.7209 14.6017 17.7377L15.2506 18.1278C15.2699 18.1385 15.291 18.1449 15.3104 18.1449C15.3503 18.1449 15.3898 18.123 15.4114 18.0858C16.2052 16.7546 17.1981 15.4183 18.3625 14.1142C18.4068 14.067 18.404 13.9912 18.3544 13.9481V13.9477Z" fill="#FEFEFE"/>
<path d="M19.7822 11.2562C19.5293 11.4906 19.2817 11.7273 19.0393 11.9656C19.0161 11.9865 19.0058 12.0183 19.0044 12.0484C19.0044 12.0808 19.0161 12.1114 19.0382 12.1335L19.5685 12.6739C19.5906 12.6977 19.6205 12.7095 19.6519 12.7095C19.6808 12.7095 19.7118 12.6977 19.7341 12.6755C19.9698 12.4421 20.2082 12.2166 20.4515 11.9866C20.5015 11.9436 20.5027 11.8692 20.4593 11.8204L19.9491 11.2642C19.9048 11.2186 19.8318 11.2145 19.7824 11.2563L19.7822 11.2562Z" fill="#FEFEFE"/>
<path d="M25.4639 6.92536C24.8747 7.29308 24.3016 7.67309 23.7602 8.05114C23.7076 8.08781 23.6946 8.16256 23.7313 8.21507L24.1611 8.83945C24.1796 8.8658 24.207 8.88306 24.2369 8.88769C24.2451 8.88769 24.2513 8.89036 24.2577 8.89036C24.2812 8.89036 24.306 8.88306 24.3255 8.86811C24.8673 8.48971 25.4271 8.12056 25.9873 7.7701C26.0137 7.75265 26.0319 7.72667 26.0397 7.69552C26.0473 7.66633 26.0424 7.63358 26.0254 7.60617L25.6255 6.96185C25.5918 6.90809 25.5189 6.89136 25.4641 6.92518L25.4639 6.92536Z" fill="#FEFEFE"/>
<path d="M30.9042 4.111C29.3542 4.7603 27.8186 5.5285 26.3416 6.39549C26.3136 6.40937 26.2939 6.43589 26.2854 6.46579C26.2787 6.49641 26.2824 6.52916 26.2983 6.55604L26.6798 7.21264C26.7025 7.2493 26.7413 7.2712 26.781 7.2712C26.8013 7.2712 26.8215 7.26497 26.8412 7.25482C28.2743 6.41115 29.77 5.66378 31.2846 5.03138C31.3144 5.01839 31.3367 4.99614 31.3496 4.96624C31.3613 4.93722 31.3604 4.90447 31.3496 4.87546L31.0581 4.17401C31.0319 4.11367 30.9619 4.08715 30.9044 4.111H30.9042Z" fill="#FEFEFE"/>
<path d="M52.77 4.22898C52.7856 4.23645 52.804 4.23895 52.8192 4.23895C52.8335 4.23895 52.8482 4.23645 52.8614 4.23272C52.8897 4.22115 52.9147 4.1989 52.9262 4.16846L53.2361 3.47466C53.2621 3.41575 53.2361 3.34491 53.1766 3.3191C52.5395 3.03076 51.9007 2.77285 51.2771 2.54823C51.2169 2.52811 51.1496 2.55713 51.1271 2.61871L50.8707 3.33191C50.8487 3.39367 50.8809 3.4606 50.9426 3.48249C51.5511 3.70391 52.1659 3.95505 52.7701 4.22898H52.77Z" fill="#FEFEFE"/>
<path d="M33.1002 4.32192C33.1121 4.32192 33.1264 4.31961 33.1379 4.31552C33.4518 4.20659 33.7661 4.09944 34.081 3.99852C34.1113 3.98926 34.1372 3.96683 34.1501 3.9396C34.166 3.91201 34.1671 3.87909 34.1582 3.85043L33.9289 3.12637C33.9106 3.06354 33.8364 3.02741 33.7803 3.04948C33.4574 3.15307 33.1342 3.26271 32.8115 3.37805C32.7513 3.39869 32.7168 3.4658 32.7394 3.52667L32.9881 4.24147C33.0051 4.29024 33.051 4.32175 33.1002 4.32175V4.32192Z" fill="#FEFEFE"/>
<path d="M48.7368 3.08079C49.0384 3.14379 49.3521 3.21962 49.6976 3.30719C49.7066 3.30986 49.7171 3.31093 49.7263 3.31093C49.7483 3.31093 49.7679 3.30612 49.7858 3.29544C49.8134 3.27942 49.832 3.25344 49.8396 3.22193L50.0274 2.4863C50.0352 2.45622 50.0297 2.42347 50.0137 2.39731C49.9987 2.36972 49.9723 2.35139 49.9425 2.34338C49.6099 2.25687 49.2764 2.17838 48.9433 2.1063C48.9116 2.09846 48.8808 2.10416 48.8542 2.12196C48.8284 2.14047 48.8098 2.16681 48.8046 2.19689L48.6461 2.94035C48.641 2.97203 48.6449 3.00318 48.6636 3.0297C48.6801 3.05587 48.7062 3.07438 48.7368 3.08079Z" fill="#FEFEFE"/>
<path d="M38.6728 1.91586C38.6548 1.94042 38.6468 1.97299 38.6519 2.00343L38.7676 2.75098C38.777 2.80972 38.8278 2.8519 38.8838 2.8519C38.8903 2.8519 38.8967 2.8519 38.9022 2.8503C39.5479 2.74938 40.2094 2.66929 40.869 2.61215C40.9343 2.60663 40.9811 2.54914 40.9773 2.48364L40.9134 1.72559C40.9092 1.69533 40.8948 1.66543 40.8688 1.64585C40.8479 1.62769 40.8192 1.61951 40.7827 1.61844C40.1031 1.67967 39.419 1.76332 38.7493 1.86691C38.7196 1.87243 38.6905 1.88916 38.6725 1.91586H38.6728Z" fill="#FEFEFE"/>
<path d="M41.851 2.54523H41.8576C42.3016 2.52174 42.7575 2.5139 43.1978 2.50839L43.3035 2.50732C44.463 2.50732 45.6364 2.58492 46.7891 2.73924C46.7932 2.74031 46.8007 2.74031 46.8051 2.74031C46.8635 2.74031 46.9129 2.69706 46.9206 2.63725L47.0227 1.88436C47.0275 1.85392 47.0173 1.82277 46.9992 1.79661C46.9808 1.77169 46.9515 1.75709 46.9204 1.75158C45.7274 1.59174 44.5107 1.51147 43.3056 1.51147C42.8005 1.50186 42.2872 1.52393 41.8055 1.54903C41.7756 1.55009 41.7453 1.56504 41.7235 1.58996C41.7024 1.61186 41.6916 1.64336 41.6936 1.67344L41.7338 2.43292C41.7364 2.49593 41.7885 2.54523 41.8507 2.54523H41.851Z" fill="#FEFEFE"/>
<path d="M63.3525 11.4614C63.3761 11.484 63.4051 11.4956 63.4359 11.4956H63.4373C63.4699 11.4943 63.4984 11.4826 63.5209 11.4587L64.0455 10.9141C64.0928 10.8675 64.0905 10.7931 64.0445 10.7486C63.5454 10.2628 63.0348 9.79757 62.5217 9.36826C62.4723 9.32483 62.3972 9.33444 62.3564 9.38428L61.8733 9.9663C61.8522 9.98855 61.8428 10.022 61.8473 10.0521C61.8485 10.0836 61.8628 10.1123 61.8885 10.1334C62.3915 10.5562 62.8839 11.004 63.3527 11.4616L63.3525 11.4614Z" fill="#FEFEFE"/>
<path d="M22.1302 11.5349C21.6118 12.0013 21.1196 12.4961 20.6659 13.0051C20.6454 13.027 20.6347 13.0585 20.637 13.0886C20.64 13.1215 20.653 13.1502 20.6765 13.1714L21.2422 13.6742C21.2629 13.6938 21.2918 13.7059 21.3201 13.7059C21.3515 13.7059 21.3839 13.6911 21.4076 13.6651C21.8245 13.1934 22.2898 12.7273 22.791 12.2743C22.8392 12.2312 22.8429 12.1568 22.7988 12.1082L22.2958 11.5438C22.253 11.4931 22.1779 11.4915 22.1306 11.5349H22.1302Z" fill="#FEFEFE"/>
<path d="M23.3735 11.6148C23.3935 11.6399 23.4218 11.6543 23.4532 11.6581C23.456 11.6593 23.4611 11.6593 23.4647 11.6593C23.4919 11.6593 23.5183 11.6504 23.5389 11.6328C24.7352 10.6539 26.1239 9.7415 27.6637 8.91954C27.692 8.9037 27.7131 8.87879 27.7209 8.84888C27.7312 8.82023 27.7275 8.78694 27.7131 8.75971L27.3587 8.08887C27.3276 8.0328 27.2571 8.01055 27.1997 8.03974C25.6054 8.89178 24.1634 9.83939 22.914 10.8591C22.8907 10.8788 22.8753 10.908 22.871 10.9394C22.8685 10.9693 22.8777 11.0018 22.8974 11.0239L23.3738 11.6147L23.3735 11.6148Z" fill="#FEFEFE"/>
<path d="M60.7801 9.53985C60.7998 9.5532 60.823 9.56067 60.8465 9.56067C60.8543 9.56067 60.8625 9.55943 60.8671 9.55836C60.8986 9.5532 60.9264 9.53451 60.9429 9.5087L61.3681 8.88289C61.3865 8.85672 61.391 8.82486 61.3865 8.79514C61.3814 8.76328 61.3626 8.73605 61.3364 8.71754C61.0525 8.52495 60.7684 8.33771 60.4792 8.15473C60.4534 8.13729 60.422 8.13249 60.3903 8.13907C60.3609 8.14655 60.3343 8.16506 60.3177 8.19104L59.9164 8.83305C59.8811 8.88787 59.8981 8.9612 59.9532 8.9968C60.2304 9.17194 60.5051 9.35349 60.7801 9.53967V9.53985Z" fill="#FEFEFE"/>
<path d="M30.417 7.48585L30.1244 6.78511C30.0977 6.72762 30.0265 6.69754 29.9691 6.72228C29.6537 6.85471 29.3427 6.99354 29.0338 7.13326C28.9739 7.1612 28.9479 7.2308 28.9752 7.29042L29.2865 7.98155C29.3057 8.02498 29.3485 8.05133 29.393 8.05133C29.4089 8.05133 29.4259 8.04723 29.4413 8.03993C29.7419 7.90342 30.0468 7.77277 30.3547 7.64142C30.414 7.61561 30.4416 7.54584 30.417 7.48585Z" fill="#FEFEFE"/>
<path d="M53.6718 6.12832C55.2723 6.62313 56.811 7.2541 58.241 8.00824C58.2569 8.01714 58.2776 8.02106 58.2957 8.02106C58.309 8.02106 58.3196 8.01999 58.3309 8.01554C58.3609 8.00664 58.3872 7.98564 58.4005 7.9584L58.7493 7.28543C58.781 7.22794 58.7569 7.1571 58.7 7.12559C57.2162 6.34422 55.6224 5.68833 53.9636 5.17732C53.8967 5.15436 53.8358 5.1921 53.8179 5.25332L53.5958 5.98005C53.585 6.01174 53.5882 6.04449 53.6025 6.07225C53.6177 6.09931 53.6433 6.11906 53.6719 6.12832H53.6718Z" fill="#FEFEFE"/>
<path d="M35.0263 6.04716C35.0335 6.04716 35.0443 6.04592 35.056 6.04147C35.6904 5.87433 36.3415 5.71824 36.9904 5.58243C37.0216 5.57602 37.0474 5.55716 37.0634 5.53135C37.0811 5.50483 37.0867 5.47226 37.0811 5.442L36.9256 4.70014C36.9107 4.63749 36.8631 4.5953 36.7846 4.60919C36.1157 4.7498 35.4466 4.90945 34.8021 5.0805C34.7397 5.09901 34.7032 5.16345 34.719 5.22628L34.9115 5.95941C34.9259 6.01174 34.9739 6.04698 35.0263 6.04698V6.04716Z" fill="#FEFEFE"/>
<path d="M52.7235 5.8535C52.7341 5.85653 52.7443 5.85759 52.7548 5.85759C52.7743 5.85759 52.7966 5.85101 52.8124 5.84282C52.8409 5.82484 52.8605 5.80099 52.8682 5.76949L53.0653 5.03653C53.0803 4.97352 53.0438 4.9098 52.9813 4.89236C52.3274 4.71597 51.655 4.55721 50.9871 4.42389C50.957 4.4198 50.9232 4.42389 50.8968 4.44222C50.8711 4.46074 50.8551 4.48672 50.8489 4.5168L50.7042 5.26151C50.6888 5.32736 50.7331 5.38841 50.796 5.40016C51.4444 5.53152 52.0928 5.68174 52.7235 5.8535Z" fill="#FEFEFE"/>
<path d="M37.9428 5.39411C37.951 5.39411 37.9572 5.39268 37.9653 5.39268C39.6076 5.09152 41.2702 4.90179 42.8955 4.83077C42.9284 4.8297 42.9566 4.81475 42.9794 4.79286C42.9989 4.76919 43.0102 4.73804 43.0094 4.70796L42.9748 3.94848C42.9738 3.91555 42.9608 3.88689 42.9371 3.86571C42.9169 3.84507 42.8864 3.84346 42.8526 3.83456C41.1708 3.91021 39.467 4.10546 37.7866 4.41196C37.7553 4.41837 37.7284 4.43688 37.711 4.4618C37.6928 4.48778 37.686 4.51911 37.6901 4.55079L37.8267 5.29692C37.8385 5.35441 37.8879 5.39393 37.9425 5.39393L37.9428 5.39411Z" fill="#FEFEFE"/>
<path d="M45.8783 4.82294C45.9088 4.82294 45.9385 4.81261 45.9591 4.79054C45.983 4.77043 45.9957 4.74053 45.9971 4.7092L46.0273 3.94954C46.0297 3.88582 45.9787 3.83083 45.915 3.82673C45.5739 3.81374 45.2352 3.80448 44.8938 3.80057H44.8916C44.8272 3.80057 44.7755 3.85272 44.7744 3.9184L44.7666 4.67521C44.7666 4.7416 44.8187 4.79464 44.8823 4.79499C45.2131 4.79926 45.5439 4.80852 45.8744 4.82276H45.8785L45.8783 4.82294Z" fill="#FEFEFE"/>
<path d="M69.9089 20.1455C70.2358 20.7092 70.546 21.2982 70.8355 21.8978C70.8483 21.9266 70.8713 21.9478 70.9016 21.958C70.9133 21.9624 70.9259 21.9646 70.9393 21.9646C70.9574 21.9646 70.9758 21.9608 70.9903 21.9532L71.6718 21.6216C71.7313 21.5945 71.7547 21.5239 71.7258 21.4648C71.4294 20.8443 71.106 20.2329 70.7647 19.6452C70.7333 19.5898 70.6609 19.5717 70.6062 19.603L69.9519 19.9841C69.9245 19.9997 69.9048 20.0264 69.8972 20.0549C69.8896 20.0862 69.8919 20.1177 69.9089 20.1457V20.1455Z" fill="#FEFEFE"/>
<path d="M69.1674 19.2589C69.1922 19.2589 69.2145 19.2506 69.2361 19.2351L69.8503 18.7937C69.8738 18.7768 69.8905 18.7492 69.8971 18.7168C69.9011 18.6863 69.8946 18.6547 69.876 18.629C69.6757 18.3485 69.4713 18.0749 69.2623 17.8039C69.2432 17.7789 69.2145 17.762 69.1845 17.7594C69.1413 17.7505 69.1204 17.7631 69.0971 17.7816L68.5004 18.249C68.4481 18.2887 68.4409 18.3642 68.4797 18.4153C68.6826 18.6746 68.8783 18.9405 69.0723 19.2086C69.096 19.2415 69.1305 19.2587 69.1674 19.2587V19.2589Z" fill="#FEFEFE"/>
<path d="M63.5378 13.3965C63.4974 13.449 63.5093 13.5234 63.5614 13.5613C64.8927 14.5748 66.1199 15.6969 67.2091 16.8999C67.2325 16.9237 67.2822 16.9326 67.2962 16.9378C67.3256 16.9378 67.3548 16.9273 67.375 16.9065L67.9358 16.3944C67.9825 16.3499 67.9853 16.2755 67.9434 16.2269C66.8076 14.9781 65.5349 13.8141 64.1557 12.7698C64.1037 12.7275 64.0307 12.7421 63.993 12.7919L63.538 13.3967L63.5378 13.3965Z" fill="#FEFEFE"/>
<path d="M61.0997 11.8886C61.6672 12.2355 62.2247 12.602 62.7567 12.9779C62.7762 12.9909 62.8001 12.9983 62.8237 12.9983C62.8605 12.9983 62.8974 12.98 62.9204 12.9474L63.3552 12.3271C63.3736 12.3022 63.3787 12.2707 63.375 12.2392C63.3685 12.2091 63.3525 12.1815 63.3265 12.162C62.7847 11.7796 62.2077 11.4 61.6124 11.0373C61.5866 11.0218 61.5522 11.0187 61.5239 11.0228C61.4927 11.0307 61.4663 11.0504 61.4497 11.0766L61.0585 11.7259C61.025 11.7812 61.0445 11.8544 61.0995 11.8884L61.0997 11.8886Z" fill="#FEFEFE"/>
<path d="M56.1011 8.35337C56.0396 8.33273 55.9748 8.36174 55.9486 8.42332L55.6815 9.13279C55.6698 9.16251 55.6721 9.19437 55.6838 9.22463C55.6957 9.25204 55.7221 9.27553 55.751 9.28639C56.0591 9.40386 56.3698 9.52454 56.6755 9.65002C56.6882 9.65661 56.7038 9.65999 56.7197 9.65999C56.7667 9.65999 56.8113 9.63151 56.8294 9.58577L57.1156 8.88556C57.1393 8.82522 57.1117 8.75563 57.052 8.73089C56.7382 8.60006 56.4201 8.47423 56.1011 8.35355V8.35337Z" fill="#FEFEFE"/>
<path d="M30.5141 9.50068C30.5288 9.5272 30.5551 9.54891 30.5832 9.55835C30.5963 9.56084 30.6071 9.56297 30.6174 9.56297C30.6371 9.56297 30.6562 9.55834 30.6746 9.54891C31.2222 9.25042 31.8184 8.97045 32.4462 8.71628C32.4761 8.70453 32.4983 8.68228 32.5121 8.6538C32.5231 8.62372 32.5248 8.59169 32.5121 8.56161L32.23 7.85873C32.2068 7.79768 32.1414 7.76991 32.0776 7.79323C31.4195 8.05896 30.7895 8.35318 30.2031 8.67178C30.1746 8.6862 30.155 8.71112 30.1456 8.74262C30.1381 8.7727 30.1408 8.80581 30.1564 8.83286L30.5143 9.50068H30.5141Z" fill="#FEFEFE"/>
<path d="M53.9072 8.63904C53.9578 8.63904 54.0032 8.60629 54.0189 8.5552L54.2455 7.83399C54.2547 7.80551 54.2536 7.77258 54.2378 7.74464C54.2237 7.71492 54.2001 7.69534 54.1688 7.6859C52.5691 7.17917 50.9015 6.77442 49.2124 6.48376C49.182 6.48376 49.1497 6.48679 49.1249 6.5037C49.0985 6.52185 49.0833 6.54944 49.0755 6.58077L48.9492 7.3301C48.9454 7.36125 48.953 7.39418 48.9687 7.4191C48.987 7.44508 49.0153 7.46093 49.0452 7.46769C50.678 7.74624 52.3022 8.13746 53.8718 8.63281C53.8847 8.63797 53.8953 8.63904 53.9072 8.63904Z" fill="#FEFEFE"/>
<path d="M38.2439 7.1927C38.2632 7.16778 38.2713 7.13486 38.2662 7.10495L38.1621 6.35491C38.1543 6.29546 38.1031 6.25256 38.0446 6.25256C38.0392 6.25256 38.0347 6.25256 38.0292 6.25417C36.2444 6.50869 34.5668 6.9008 33.0426 7.42978C33.0127 7.44011 32.9879 7.46111 32.975 7.48977C32.962 7.51878 32.9595 7.55153 32.9695 7.58036L33.216 8.2973C33.2328 8.34607 33.2789 8.3774 33.3262 8.3774C33.3396 8.3774 33.3525 8.37491 33.3658 8.37099C34.8216 7.86443 36.4376 7.48514 38.1672 7.23898C38.1984 7.23328 38.2257 7.2178 38.2441 7.19288L38.2439 7.1927Z" fill="#FEFEFE"/>
<path d="M46.1678 6.08507C46.108 6.08507 46.0557 6.13117 46.0508 6.194L45.9829 6.94903C45.9787 6.97893 45.9881 7.01061 46.0091 7.03571C46.0272 7.06045 46.0577 7.07469 46.0874 7.07593C46.759 7.13912 47.4235 7.21779 48.0648 7.3107C48.07 7.31177 48.0747 7.31177 48.0802 7.31177C48.1052 7.31177 48.1309 7.30287 48.1504 7.28952C48.1755 7.26994 48.1925 7.24111 48.1973 7.21121L48.3043 6.45973C48.3135 6.39548 48.269 6.3355 48.2055 6.32624C47.5254 6.22781 46.8433 6.14558 46.1785 6.08649C46.1763 6.08507 46.1707 6.08507 46.1682 6.08507H46.1678Z" fill="#FEFEFE"/>
<path d="M40.1297 7.02769H40.1397C40.4659 7.00152 40.7962 6.97874 41.1286 6.96468C41.1589 6.96201 41.1885 6.9492 41.2106 6.92535C41.2305 6.9031 41.242 6.87159 41.2409 6.8392L41.2057 6.08132C41.2028 6.04999 41.1901 6.0208 41.1663 5.9982C41.143 5.97791 41.1102 5.96848 41.0803 5.96848C40.7393 5.98521 40.4005 6.00639 40.0619 6.03237C40.0306 6.03629 40.0017 6.05195 39.981 6.07473C39.9595 6.09912 39.9507 6.12956 39.9517 6.16106L40.012 6.91751C40.0146 6.9492 40.0306 6.97767 40.0543 6.99743C40.0748 7.01701 40.1037 7.02769 40.1297 7.02769Z" fill="#FEFEFE"/>
<path d="M75.0159 32.134C75.0085 32.1025 74.9925 32.0763 74.9663 32.0578C74.9401 32.0396 74.9079 32.0384 74.8778 32.0384L74.1353 32.1735C74.0716 32.1863 74.0287 32.2479 74.0392 32.3121C74.1536 32.9468 74.2446 33.6068 74.314 34.2739C74.3167 34.3054 74.3323 34.3348 74.3548 34.3551C74.3766 34.3711 74.4028 34.3816 74.43 34.3816C74.4352 34.3816 74.4382 34.3816 74.443 34.3791L75.1932 34.3033C75.2575 34.2965 75.3055 34.2376 75.298 34.1735C75.2283 33.4862 75.1337 32.8002 75.0159 32.134Z" fill="#FEFEFE"/>
<path d="M73.2938 30.1059C73.2796 30.1344 73.2785 30.1679 73.2876 30.1976C73.3851 30.4975 73.4815 30.8158 73.5727 31.1443C73.5856 31.1968 73.634 31.2307 73.6859 31.2307C73.6963 31.2307 73.7064 31.2282 73.7186 31.2255L74.4455 31.0226C74.5066 31.0055 74.5432 30.9389 74.5261 30.8763C74.4324 30.537 74.3323 30.2031 74.2291 29.8863C74.2204 29.8575 74.1981 29.8324 74.172 29.8167C74.1419 29.805 74.1092 29.7986 74.0806 29.81L73.3616 30.0485C73.3331 30.0574 73.3093 30.0785 73.2938 30.1061V30.1059Z" fill="#FEFEFE"/>
<path d="M70.9806 23.3669L70.3471 23.78C70.2953 23.8146 70.2769 23.8875 70.3138 23.9427C71.2227 25.3515 71.9942 26.8295 72.6087 28.3335C72.6218 28.3624 72.644 28.3859 72.6712 28.3976C72.687 28.404 72.7026 28.4067 72.7183 28.4067C72.7339 28.4067 72.7485 28.404 72.7624 28.3976L73.4611 28.1082C73.5205 28.0835 73.5493 28.0137 73.5247 27.9542C72.8823 26.3845 72.0827 24.8513 71.1433 23.4007C71.1093 23.3484 71.0353 23.3276 70.9806 23.3669Z" fill="#FEFEFE"/>
<path d="M70.5931 22.6349C70.5984 22.6039 70.5931 22.5735 70.5747 22.5471C70.1943 22.0014 69.7802 21.4477 69.3447 20.902C69.3029 20.8493 69.2278 20.8429 69.1807 20.8818L68.5906 21.3574C68.5658 21.377 68.55 21.4046 68.5477 21.4375C68.5426 21.4687 68.553 21.4989 68.5711 21.5237C68.9876 22.0434 69.3895 22.5816 69.7605 23.1183C69.7786 23.145 69.8046 23.1615 69.8374 23.1683C69.8422 23.1683 69.8505 23.1694 69.8571 23.1694C69.8815 23.1694 69.9049 23.1615 69.9245 23.1475L70.5446 22.7125C70.5708 22.6929 70.5878 22.6653 70.5933 22.635L70.5931 22.6349Z" fill="#FEFEFE"/>
<path d="M65.2519 17.9311C65.2817 17.9206 65.3169 17.9178 65.3405 17.8932L65.8497 17.3331C65.8693 17.3108 65.8821 17.2793 65.8794 17.248C65.8794 17.2165 65.8651 17.1859 65.8435 17.1652C65.5902 16.9333 65.3343 16.7069 65.0732 16.4835C65.0511 16.4634 65.0199 16.4581 64.9872 16.4545C64.9571 16.4572 64.9285 16.4727 64.908 16.4964L64.4179 17.0723C64.3749 17.1225 64.3813 17.198 64.4294 17.2388C64.6809 17.4559 64.9285 17.675 65.1733 17.901C65.1944 17.9206 65.2232 17.9311 65.2519 17.9311Z" fill="#FEFEFE"/>
<path d="M58.6926 13.1491C58.7004 13.1802 58.721 13.2069 58.7488 13.2212C60.1954 14.0547 61.5883 14.9833 62.8869 15.9807C62.9079 15.9953 62.9329 16.0044 62.96 16.0044C62.9623 16.0044 62.9706 16.0044 62.974 16.003C63.0045 15.9992 63.0342 15.9832 63.0526 15.9586L63.5099 15.3551C63.5505 15.3024 63.5402 15.2298 63.489 15.1887C62.1538 14.1626 60.7221 13.2107 59.2397 12.3586C59.185 12.3246 59.1125 12.3453 59.0796 12.4031L58.7029 13.0605C58.6889 13.0864 58.6852 13.1194 58.693 13.1494L58.6926 13.1491Z" fill="#FEFEFE"/>
<path d="M56.4313 10.9353C56.4014 10.946 56.3776 10.968 56.3638 10.9958L56.0445 11.6843C56.0156 11.7441 56.0418 11.8147 56.1006 11.8425C56.6986 12.1241 57.2977 12.424 57.8788 12.7376C57.8958 12.7469 57.9139 12.752 57.9335 12.752C57.9442 12.752 57.9571 12.7509 57.9674 12.7458C57.9984 12.7376 58.0219 12.7168 58.0375 12.689L58.3931 12.0205C58.4234 11.9642 58.4025 11.8909 58.3451 11.8606C57.7472 11.5385 57.1339 11.2283 56.5209 10.9394C56.4929 10.9274 56.4575 10.9244 56.4313 10.9351V10.9353Z" fill="#FEFEFE"/>
<path d="M50.6443 8.86951L50.4415 9.60105C50.4328 9.63149 50.4369 9.66424 50.4521 9.69165C50.4675 9.71923 50.4934 9.74024 50.5247 9.74771C50.8411 9.83564 51.1576 9.9298 51.476 10.0295C51.4891 10.0334 51.499 10.0348 51.5107 10.0348C51.5291 10.0348 51.5488 10.0311 51.5668 10.0218C51.5927 10.0072 51.6141 9.98106 51.623 9.95204L51.8486 9.22709C51.8685 9.16409 51.8327 9.09805 51.7718 9.07919C51.442 8.97453 51.1163 8.87895 50.7906 8.78853C50.7304 8.77162 50.6629 8.80722 50.6445 8.86987L50.6443 8.86951Z" fill="#FEFEFE"/>
<path d="M43.7132 7.69142C43.6488 7.69142 43.597 7.74357 43.5946 7.80818L43.5825 8.56677C43.5825 8.59721 43.5946 8.62889 43.6155 8.64954C43.6378 8.67285 43.6672 8.68514 43.6983 8.68656C45.2372 8.71005 46.8849 8.90513 48.5968 9.27036C48.6047 9.27143 48.6154 9.27303 48.6226 9.27303C48.6455 9.27303 48.6671 9.26769 48.6864 9.25345C48.7112 9.23619 48.7307 9.20985 48.7369 9.17977L48.894 8.43755C48.9069 8.3733 48.8653 8.31171 48.8026 8.29712C47.0333 7.92067 45.3217 7.71492 43.7145 7.69142H43.7134H43.7132Z" fill="#FEFEFE"/>
<path d="M42.7981 8.65594C42.8202 8.63369 42.8305 8.60396 42.8305 8.57103L42.8048 7.81156C42.8005 7.7489 42.7485 7.69907 42.686 7.69907H42.6819C41.9738 7.72149 41.2801 7.78308 40.6212 7.88257C40.5904 7.88631 40.5614 7.9034 40.5431 7.92814C40.5247 7.95466 40.5173 7.98438 40.5228 8.01571L40.6343 8.76771C40.6381 8.79886 40.6549 8.82645 40.6786 8.84603C40.7008 8.86098 40.7252 8.86828 40.7491 8.86828C40.7569 8.86828 40.762 8.86828 40.7672 8.86721C41.3851 8.77305 42.0397 8.71663 42.7159 8.69438C42.7476 8.69296 42.7761 8.67836 42.7982 8.65611L42.7981 8.65594Z" fill="#FEFEFE"/>
<path d="M33.2368 52.4961C33.2603 52.4697 33.2696 52.4345 33.2634 52.3994L30.6289 37.9636L33.0638 24.3215C33.07 24.2862 33.0613 24.2506 33.0375 24.2246C33.017 24.1972 32.9828 24.1814 32.949 24.1814H31.3077C31.2502 24.1814 31.202 24.2232 31.1921 24.2782L28.8332 36.9217H27.2982V24.3001C27.2982 24.2366 27.2463 24.1814 27.181 24.1814H25.5429C25.4774 24.1814 25.4253 24.2368 25.4253 24.3001V52.4208C25.4253 52.4849 25.4775 52.5397 25.5429 52.5397H27.181C27.2465 52.5397 27.2982 52.4847 27.2982 52.4208V38.8045H28.8332L31.3703 52.3391L31.389 52.4429C31.4002 52.4977 31.4485 52.5395 31.5059 52.5395H33.147C33.1822 52.5395 33.2147 52.5237 33.2368 52.4961Z" fill="#FEFEFE"/>
<path d="M48.1196 34.5414H49.7583C49.8219 34.5414 49.8752 34.4877 49.8752 34.4225V28.0795C49.8752 26.8543 49.5392 25.8807 48.8755 25.189C48.2108 24.4954 47.3323 24.1431 46.2656 24.1431C45.1991 24.1431 44.3187 24.4938 43.6542 25.1879C42.9912 25.8807 42.6533 26.8502 42.6533 28.0744V48.646C42.6533 49.8699 42.9912 50.8426 43.6542 51.5339C44.3213 52.2275 45.1991 52.5787 46.2656 52.5787C47.33 52.5787 48.2094 52.2277 48.8755 51.5339C49.5392 50.8415 49.8752 49.8684 49.8752 48.6433V41.9121C49.8752 41.8465 49.8217 41.7932 49.7583 41.7932H48.1196C48.0546 41.7932 48.0013 41.8466 48.0013 41.9121V48.6184C48.0013 49.3241 47.8433 49.8544 47.5337 50.1933C47.2245 50.527 46.7987 50.6961 46.2658 50.6961C45.7254 50.6961 45.3103 50.5309 44.9986 50.1933C44.6858 49.8556 44.5296 49.3265 44.5296 48.6184V28.1055C44.5296 27.3966 44.6856 26.8658 44.9986 26.5296C45.3103 26.1907 45.7254 26.0257 46.2658 26.0257C46.7987 26.0257 47.2245 26.1946 47.5337 26.5296C47.8431 26.8676 48.0013 27.3977 48.0013 28.1029V34.4225C48.0013 34.4879 48.0547 34.5414 48.1196 34.5414Z" fill="#FEFEFE"/>
<path d="M100.503 32.2153L104.27 23.926H106.121V35.3483H104.822V25.7374L100.941 34.0918H100.032L96.1515 25.7374V35.3483H94.8526V23.926H96.7361L100.503 32.2153H100.503ZM109.368 23.926H116.318V25.1988H110.732V28.7561H115.798V30.0287H110.732V34.0755H116.318V35.3481H109.368V23.9258V23.926ZM126.189 34.0756V25.199H121.351V27.1898C121.351 27.8533 121.335 28.5087 121.302 29.156C121.27 29.8034 121.218 30.4205 121.148 31.008C121.078 31.5954 120.988 32.1502 120.88 32.6722C120.772 33.1944 120.642 33.6622 120.49 34.0756H126.189H126.189ZM119.321 35.3483V37.9101H117.99V34.0756H119.062C119.246 33.7602 119.4 33.3494 119.524 32.8436C119.649 32.3378 119.752 31.7721 119.833 31.1466C119.914 30.521 119.971 29.8413 120.003 29.1069C120.036 28.3727 120.052 27.6194 120.052 26.8471V23.9262H127.553V34.0758H129.08V37.9102H127.748V35.3484H119.321V35.3483ZM138.919 35.3483V26.0473L132.717 35.3483H131.255V23.926H132.619V33.227L138.822 23.926H140.283V35.3483H138.919ZM144.667 23.926V34.0756H150.902V23.926H152.298V34.0756H153.824V37.7634H152.428V35.3483H143.271V23.926H144.667H144.667ZM163.664 35.3483V26.0473L157.461 35.3483H156V23.926H157.364V33.227L163.566 23.926H165.027V35.3483H163.664ZM167.999 23.926H169.363V28.6582H175.273V23.926H176.636V35.3483H175.273V29.9308H169.363V35.3483H167.999V23.926ZM184.917 35.6094C184.073 35.6094 183.296 35.4599 182.587 35.1607C181.878 34.8615 181.267 34.4455 180.753 33.9122C180.238 33.3793 179.835 32.7482 179.543 32.0195C179.251 31.2906 179.104 30.4965 179.104 29.6371C179.104 28.7776 179.251 27.9836 179.543 27.2547C179.835 26.5259 180.238 25.8949 180.753 25.3618C181.267 24.8289 181.878 24.4128 182.587 24.1136C183.296 23.8144 184.073 23.6647 184.917 23.6647C186.01 23.6647 186.985 23.9176 187.84 24.4235C188.695 24.9293 189.355 25.6446 189.821 26.5693L188.652 27.2708C188.273 26.531 187.77 25.9682 187.142 25.582C186.514 25.1958 185.778 25.0028 184.933 25.0028C184.284 25.0028 183.689 25.1142 183.147 25.3373C182.606 25.5603 182.143 25.8757 181.759 26.2836C181.375 26.6916 181.075 27.181 180.858 27.752C180.642 28.3232 180.533 28.9515 180.533 29.6368C180.533 30.322 180.642 30.9501 180.858 31.5213C181.075 32.0925 181.375 32.5821 181.759 32.9899C182.143 33.3979 182.606 33.7133 183.147 33.9363C183.689 34.1593 184.284 34.2707 184.933 34.2707C185.778 34.2707 186.514 34.0776 187.142 33.6914C187.77 33.3053 188.273 32.7423 188.652 32.0026L189.821 32.7042C189.355 33.6289 188.695 34.3442 187.84 34.8499C186.985 35.3557 186.011 35.6087 184.917 35.6087V35.6094ZM196.104 29.3598L200.472 35.3483H198.783L194.951 30.0125H193.344V35.3483H191.98V23.926H193.344V28.7397H195.016L198.783 23.926H200.439L196.104 29.3598H196.104ZM210.052 35.3483V26.0473L203.849 35.3483H202.388V23.926H203.752V33.227L209.954 23.926H211.415V35.3483H210.052ZM222.05 35.3483V26.0473L215.848 35.3483H214.387V23.926H215.751V33.227L221.953 23.926H223.414V35.3483H222.05ZM218.9 22.5391C218.045 22.5391 217.355 22.3296 216.83 21.9108C216.305 21.492 215.989 20.9073 215.88 20.1567H217.098C217.152 20.5917 217.342 20.9263 217.667 21.1602C217.991 21.3941 218.403 21.511 218.901 21.511C219.399 21.511 219.81 21.3941 220.135 21.1602C220.459 20.9263 220.649 20.5917 220.703 20.1567H221.921C221.813 20.9073 221.496 21.492 220.971 21.9108C220.446 22.3296 219.756 22.5391 218.901 22.5391H218.9ZM232.036 23.926V34.0756H238.271V23.926H239.667V34.0756H241.194V37.7634H239.797V35.3483H230.64V23.926H232.036H232.036ZM243.353 23.926H250.302V25.1988H244.717V28.7561H249.783V30.0287H244.717V34.0755H250.302V35.3481H243.353V23.9258V23.926ZM252.77 23.926H254.134V28.6582H260.044V23.926H261.408V35.3483H260.044V29.9308H254.134V35.3483H252.77V23.926ZM271.962 23.926V25.1988H268.422V35.3483H267.058V25.1988H263.518V23.926H271.961H271.962ZM275.404 29.8655H278.391C279.095 29.8655 279.658 29.6533 280.08 29.2292C280.502 28.8048 280.713 28.2337 280.713 27.5158C280.713 26.8087 280.499 26.2459 280.072 25.8269C279.644 25.4081 279.084 25.1988 278.391 25.1988H275.404V29.8655ZM274.072 35.3483V23.926H278.472C279.014 23.926 279.506 24.0132 279.95 24.1871C280.394 24.3612 280.773 24.6061 281.087 24.9215C281.4 25.2369 281.644 25.6149 281.817 26.0554C281.99 26.4961 282.077 26.9883 282.077 27.532C282.077 28.0651 281.99 28.5548 281.817 29.0006C281.644 29.4467 281.4 29.8274 281.087 30.1428C280.773 30.4582 280.397 30.7031 279.958 30.877C279.52 31.0511 279.03 31.1383 278.489 31.1383H275.404V35.3481H274.072V35.3483ZM101.997 52.3838V43.5071H97.1581V45.4979C97.1581 46.1615 97.142 46.8168 97.1094 47.4642C97.077 48.1115 97.0255 48.7286 96.9552 49.3161C96.8849 49.9035 96.7956 50.4583 96.6872 50.9803C96.5792 51.5026 96.4492 51.9703 96.2976 52.3838H101.997H101.997ZM95.1287 53.6564V56.2182H93.7974V52.3838H94.8689C95.0529 52.0684 95.2071 51.6576 95.3316 51.1517C95.4561 50.6459 95.559 50.0802 95.6402 49.4548C95.7215 48.8292 95.7781 48.1494 95.8105 47.415C95.8431 46.6808 95.8594 45.9276 95.8594 45.1553V42.2343H103.361V52.384H104.887V56.2184H103.555V53.6566H95.1287V53.6564ZM112.291 53.9175C111.468 53.9175 110.702 53.768 109.993 53.4688C109.285 53.1696 108.676 52.7563 108.167 52.2286C107.658 51.701 107.258 51.07 106.965 50.3358C106.673 49.6015 106.527 48.8046 106.527 47.9453C106.527 47.0749 106.673 46.2754 106.965 45.5465C107.257 44.8176 107.658 44.1893 108.167 43.6618C108.675 43.1342 109.284 42.7209 109.993 42.4217C110.702 42.1225 111.468 41.9728 112.291 41.9728C113.124 41.9728 113.89 42.1223 114.588 42.4217C115.287 42.7207 115.893 43.134 116.407 43.6618C116.921 44.1893 117.322 44.8176 117.609 45.5465C117.895 46.2752 118.039 47.0749 118.039 47.9453C118.039 48.8046 117.895 49.6013 117.609 50.3358C117.322 51.07 116.921 51.701 116.407 52.2286C115.893 52.7561 115.287 53.1694 114.588 53.4688C113.89 53.7678 113.124 53.9175 112.291 53.9175ZM112.291 52.5796C112.93 52.5796 113.514 52.4653 114.044 52.2369C114.575 52.0084 115.03 51.6903 115.408 51.2824C115.787 50.8744 116.082 50.3876 116.293 49.822C116.504 49.2563 116.61 48.6309 116.61 47.9456C116.61 47.2604 116.504 46.6321 116.293 46.0609C116.082 45.4899 115.787 45.0003 115.408 44.5925C115.03 44.1845 114.575 43.8691 114.044 43.6461C113.514 43.4231 112.93 43.3117 112.291 43.3117C111.652 43.3117 111.068 43.4231 110.537 43.6461C110.007 43.8691 109.55 44.1845 109.165 44.5925C108.781 45.0004 108.483 45.4899 108.272 46.0609C108.061 46.6321 107.956 47.2604 107.956 47.9456C107.956 48.6309 108.061 49.2563 108.272 49.822C108.483 50.3876 108.781 50.8746 109.165 51.2824C109.55 51.6903 110.007 52.0084 110.537 52.2369C111.068 52.4653 111.652 52.5796 112.291 52.5796ZM124.647 47.668L129.015 53.6564H127.326L123.494 48.3206H121.887V53.6564H120.523V42.2341H121.887V47.0478H123.559L127.326 42.2341H128.982L124.647 47.668H124.647ZM138.481 42.2341V43.5069H134.941V53.6564H133.577V43.5069H130.037V42.2341H138.48H138.481ZM145.836 53.9175C145.013 53.9175 144.247 53.768 143.538 53.4688C142.83 53.1696 142.221 52.7563 141.712 52.2286C141.203 51.701 140.803 51.07 140.51 50.3358C140.218 49.6015 140.072 48.8046 140.072 47.9453C140.072 47.0749 140.218 46.2754 140.51 45.5465C140.802 44.8176 141.203 44.1893 141.712 43.6618C142.22 43.1342 142.829 42.7209 143.538 42.4217C144.247 42.1225 145.013 41.9728 145.836 41.9728C146.669 41.9728 147.435 42.1223 148.133 42.4217C148.832 42.7207 149.438 43.134 149.952 43.6618C150.466 44.1893 150.867 44.8176 151.154 45.5465C151.44 46.2752 151.584 47.0749 151.584 47.9453C151.584 48.8046 151.44 49.6013 151.154 50.3358C150.867 51.07 150.466 51.701 149.952 52.2286C149.438 52.7561 148.832 53.1694 148.133 53.4688C147.435 53.7678 146.669 53.9175 145.836 53.9175ZM145.836 52.5796C146.475 52.5796 147.059 52.4653 147.589 52.2369C148.12 52.0084 148.575 51.6903 148.953 51.2824C149.332 50.8744 149.627 50.3876 149.838 49.822C150.049 49.2563 150.155 48.6309 150.155 47.9456C150.155 47.2604 150.049 46.6321 149.838 46.0609C149.627 45.4899 149.332 45.0003 148.953 44.5925C148.575 44.1845 148.12 43.8691 147.589 43.6461C147.059 43.4231 146.475 43.3117 145.836 43.3117C145.197 43.3117 144.613 43.4231 144.082 43.6461C143.552 43.8691 143.095 44.1845 142.71 44.5925C142.326 45.0004 142.028 45.4899 141.817 46.0609C141.606 46.6321 141.501 47.2604 141.501 47.9456C141.501 48.6309 141.606 49.2563 141.817 49.822C142.028 50.3876 142.326 50.8746 142.71 51.2824C143.095 51.6903 143.552 52.0084 144.082 52.2369C144.613 52.4653 145.197 52.5796 145.836 52.5796ZM155.383 48.1738H158.371C159.074 48.1738 159.637 47.9616 160.059 47.5375C160.481 47.1132 160.692 46.542 160.692 45.8242C160.692 45.117 160.478 44.5542 160.051 44.1352C159.623 43.7164 159.063 43.5071 158.371 43.5071H155.383V48.1738ZM154.052 53.6566V42.2343H158.452C158.993 42.2343 159.486 42.3215 159.929 42.4954C160.373 42.6695 160.752 42.9144 161.066 43.2298C161.38 43.5452 161.623 43.9232 161.796 44.3638C161.97 44.8045 162.056 45.2966 162.056 45.8404C162.056 46.3734 161.97 46.8631 161.796 47.309C161.623 47.755 161.38 48.1357 161.066 48.4511C160.752 48.7665 160.376 49.0114 159.937 49.1853C159.499 49.3594 159.009 49.4466 158.468 49.4466H155.383V53.6564H154.052V53.6566ZM166.229 49.3815H170.158L168.194 43.7029L166.229 49.3815ZM168.99 42.2343L173.162 53.6566H171.636L170.58 50.5889H165.807L164.752 53.6566H163.258L167.431 42.2343H168.989H168.99ZM184.593 53.9177C183.749 53.9177 182.972 53.7682 182.263 53.469C181.554 53.1698 180.942 52.7538 180.428 52.2206C179.914 51.6877 179.511 51.0565 179.219 50.3278C178.926 49.599 178.78 48.8048 178.78 47.9454C178.78 47.0859 178.926 46.2919 179.219 45.5631C179.511 44.8342 179.914 44.2032 180.428 43.6701C180.942 43.1372 181.554 42.7211 182.263 42.4219C182.972 42.1227 183.749 41.973 184.593 41.973C185.686 41.973 186.66 42.2259 187.515 42.7318C188.371 43.2376 189.031 43.953 189.496 44.8776L188.327 45.5791C187.949 44.8394 187.445 44.2766 186.817 43.8903C186.19 43.5041 185.454 43.3111 184.609 43.3111C183.96 43.3111 183.364 43.4226 182.823 43.6456C182.282 43.8686 181.819 44.184 181.435 44.592C181.051 44.9999 180.75 45.4894 180.534 46.0604C180.317 46.6315 180.209 47.2598 180.209 47.9451C180.209 48.6303 180.317 49.2585 180.534 49.8296C180.75 50.4008 181.051 50.8905 181.435 51.2982C181.819 51.7062 182.282 52.0216 182.823 52.2446C183.364 52.4676 183.96 52.579 184.609 52.579C185.454 52.579 186.19 52.3859 186.817 51.9997C187.445 51.6136 187.949 51.0506 188.327 50.3109L189.496 51.0126C189.031 51.9372 188.371 52.6525 187.515 53.1582C186.66 53.6641 185.686 53.917 184.593 53.917V53.9177ZM195.163 48.7615L197.939 42.2345H199.498L194.432 53.6568H192.971L194.514 50.1812L190.584 42.2345H192.143L195.163 48.7615ZM206.691 53.9177C205.846 53.9177 205.07 53.7682 204.361 53.469C203.652 53.1698 203.04 52.7538 202.526 52.2206C202.012 51.6877 201.609 51.0565 201.316 50.3278C201.024 49.599 200.878 48.8048 200.878 47.9454C200.878 47.0859 201.024 46.2919 201.316 45.5631C201.609 44.8342 202.012 44.2032 202.526 43.6701C203.04 43.1372 203.652 42.7211 204.361 42.4219C205.07 42.1227 205.846 41.973 206.691 41.973C207.784 41.973 208.758 42.2259 209.613 42.7318C210.469 43.2376 211.129 43.953 211.594 44.8776L210.425 45.5791C210.046 44.8394 209.543 44.2766 208.915 43.8903C208.288 43.5041 207.551 43.3111 206.707 43.3111C206.058 43.3111 205.462 43.4226 204.921 43.6456C204.38 43.8686 203.917 44.184 203.533 44.592C203.148 44.9999 202.848 45.4894 202.632 46.0604C202.415 46.6315 202.307 47.2598 202.307 47.9451C202.307 48.6303 202.415 49.2585 202.632 49.8296C202.848 50.4008 203.148 50.8905 203.533 51.2982C203.917 51.7062 204.38 52.0216 204.921 52.2446C205.462 52.4676 206.058 52.579 206.707 52.579C207.551 52.579 208.288 52.3859 208.915 51.9997C209.543 51.6136 210.046 51.0506 210.425 50.3109L211.594 51.0126C211.129 51.9372 210.469 52.6525 209.613 53.1582C208.758 53.6641 207.784 53.917 206.691 53.917V53.9177ZM221.304 42.2343V43.5071H217.764V53.6566H216.4V43.5071H212.86V42.2343H221.303H221.304ZM224.746 48.1738H227.733C228.437 48.1738 229 47.9616 229.422 47.5375C229.844 47.1132 230.055 46.542 230.055 45.8242C230.055 45.117 229.841 44.5542 229.414 44.1352C228.986 43.7164 228.426 43.5071 227.733 43.5071H224.746V48.1738ZM223.414 53.6566V42.2343H227.814C228.356 42.2343 228.848 42.3215 229.292 42.4954C229.736 42.6695 230.115 42.9144 230.429 43.2298C230.742 43.5452 230.986 43.9232 231.159 44.3638C231.332 44.8045 231.419 45.2966 231.419 45.8404C231.419 46.3734 231.332 46.8631 231.159 47.309C230.986 47.755 230.742 48.1357 230.429 48.4511C230.115 48.7665 229.739 49.0114 229.3 49.1853C228.862 49.3594 228.372 49.4466 227.831 49.4466H224.746V53.6564H223.414V53.6566ZM233.692 42.2343H240.642V43.5071H235.056V47.0644H240.122V48.337H235.056V52.3838H240.642V53.6564H233.692V42.2341V42.2343ZM250.676 42.2343V43.5071H247.136V53.6566H245.772V43.5071H242.233V42.2343H250.676H250.676ZM258.031 53.9177C257.208 53.9177 256.443 53.7682 255.734 53.469C255.025 53.1698 254.416 52.7565 253.907 52.2288C253.398 51.7012 252.998 51.0702 252.705 50.336C252.413 49.6016 252.267 48.8048 252.267 47.9454C252.267 47.0751 252.413 46.2755 252.705 45.5467C252.998 44.8178 253.398 44.1895 253.907 43.662C254.416 43.1344 255.025 42.7211 255.734 42.4219C256.443 42.1227 257.208 41.973 258.031 41.973C258.865 41.973 259.631 42.1225 260.329 42.4219C261.027 42.7209 261.633 43.1342 262.147 43.662C262.661 44.1895 263.062 44.8178 263.349 45.5467C263.636 46.2754 263.779 47.0751 263.779 47.9454C263.779 48.8048 263.636 49.6015 263.349 50.336C263.062 51.0702 262.661 51.7012 262.147 52.2288C261.633 52.7563 261.027 53.1696 260.329 53.469C259.631 53.768 258.865 53.9177 258.031 53.9177ZM258.031 52.5797C258.67 52.5797 259.254 52.4655 259.785 52.2371C260.315 52.0086 260.77 51.6905 261.149 51.2826C261.527 50.8746 261.822 50.3878 262.033 49.8222C262.244 49.2565 262.35 48.6311 262.35 47.9458C262.35 47.2605 262.244 46.6322 262.033 46.0611C261.822 45.4901 261.527 45.0004 261.149 44.5927C260.77 44.1847 260.315 43.8693 259.785 43.6463C259.254 43.4233 258.67 43.3118 258.031 43.3118C257.392 43.3118 256.808 43.4233 256.278 43.6463C255.747 43.8693 255.29 44.1847 254.906 44.5927C254.521 45.0006 254.224 45.4901 254.013 46.0611C253.801 46.6322 253.696 47.2605 253.696 47.9458C253.696 48.6311 253.801 49.2565 254.013 49.8222C254.224 50.3878 254.521 50.8748 254.906 51.2826C255.29 51.6905 255.747 52.0086 256.278 52.2371C256.808 52.4655 257.392 52.5797 258.031 52.5797ZM267.351 48.3861V52.384H270.598C271.248 52.384 271.765 52.199 272.149 51.8292C272.533 51.4593 272.725 50.9752 272.725 50.377C272.725 49.7896 272.533 49.311 272.149 48.9409C271.765 48.5711 271.248 48.3861 270.598 48.3861H267.351ZM267.351 47.1135H270.29C270.874 47.1135 271.345 46.9421 271.703 46.5995C272.06 46.2569 272.238 45.819 272.238 45.2861C272.238 44.7639 272.06 44.3369 271.703 44.0051C271.345 43.6735 270.874 43.5076 270.29 43.5076H267.351V47.1137V47.1135ZM266.02 42.2345H270.387C270.874 42.2345 271.315 42.2998 271.711 42.4303C272.106 42.5609 272.444 42.7512 272.725 43.0014C273.007 43.2517 273.223 43.5562 273.375 43.9152C273.526 44.2741 273.602 44.682 273.602 45.1391C273.602 46.3466 273.039 47.1787 271.914 47.6356C272.628 47.8422 273.169 48.1959 273.537 48.6964C273.905 49.1967 274.089 49.8058 274.089 50.524C274.089 51.0134 274.005 51.4513 273.838 51.8375C273.67 52.2236 273.434 52.55 273.131 52.8165C272.828 53.0831 272.466 53.2897 272.044 53.4366C271.621 53.5834 271.156 53.6569 270.647 53.6569H266.02V42.2347L266.02 42.2345ZM278.067 49.3816H281.996L280.032 43.7031L278.067 49.3816ZM280.827 42.2345L285 53.6568H283.474L282.418 50.5891H277.645L276.589 53.6568H275.096L279.269 42.2345H280.827H280.827Z" fill="#FEFEFE"/>
</svg>
